<?xml version="1.0" encoding="UTF-8"?>
<svg xmlns="http://www.w3.org/2000/svg" version="1.1" viewBox="0 0 1407 1490">
  <defs>
    <style>
      .cls-1, .cls-2, .cls-3 {
        fill: #fff;
      }

      .cls-2 {
        opacity: .5;
      }

      .cls-4 {
        fill: #0075bc;
      }

      .cls-5 {
        fill: none;
      }

      .cls-3 {
        opacity: .3;
      }
    </style>
  </defs>
  <!-- Generator: Adobe Illustrator 28.6.0, SVG Export Plug-In . SVG Version: 1.2.0 Build 709)  -->
  <g>
    <g id="Layer_1">
      <g>
        <path class="cls-5" d="M813.1,391.4c-11.4,6.4-21.4,13.2-30.2,20.5-17,13.9-32.6,29.3-46.9,46-.2.3-.6.3-.9,0-.1,0-.2-.2-.2-.3-4-16.5-10.3-31.5-18.9-45-2.9-4.5-7.2-9.3-13-14.2-.2-.1-.2-.5,0-1" vector-effect="non-scaling-stroke"/>
        <path class="cls-5" d="M906.1,460.5c-5.9,13.1-12.7,24.9-20.4,35.5-12.3,16.8-26.7,33.2-43.1,49.1-.7.7-1.7,1.2-2.3,1.8-.6.6-.5,1,.4,1.2,16.8,2.8,32.9,7.1,48.3,13.1,14,5.4,26,12.3,36,20.6" vector-effect="non-scaling-stroke"/>
        <path class="cls-5" d="M925,582.2c-.4.4-1.2,1.1-2.4,1.9-11.9,8.3-24,15.3-36.3,20.9-18.5,8.5-37.4,15.2-56.6,20.2-.2,0-.3.2-.2.4,0,0,0,0,0,.1,6.4,6.4,12.2,13.3,17.4,20.5,4.7,6.5,8.3,12.1,10.9,16.8,4.6,8.5,7.8,17.5,9.6,27.1" vector-effect="non-scaling-stroke"/>
        <path class="cls-5" d="M867.3,690.4l-12.5,1.2" vector-effect="non-scaling-stroke"/>
        <path class="cls-5" d="M854.8,691.6c-1.3-.3-2.4-.2-3.2.3" vector-effect="non-scaling-stroke"/>
        <path class="cls-5" d="M851.6,691.9c-2.8.2-5.7.3-8.6.2-21-.3-41.2-3-60.5-8.1-.3,0-.7.1-.8.5,0,0,0,.2,0,.3,2.1,14.2,2.3,28.5.4,42.7-.7,5.2-2.7,11.5-6,18.8" vector-effect="non-scaling-stroke"/>
        <path class="cls-5" d="M775.7,746.8c0-.5-.2-.8-.4-.8-9.3-3.5-18.3-8.2-26.9-14.1-10.2-7.1-19.6-14.9-28.1-23.4" vector-effect="non-scaling-stroke"/>
        <path class="cls-5" d="M720.3,708.5c6-14.8,9.1-30.4,9.4-46.9,0-.3.3-.5.5-.5,0,0,.2,0,.3,0,15.1,10,31.5,17.3,49.1,22,.4.1.6.2,1,.5.4.3.6.2.6-.3,0-.9-.1-1.8-.3-2.7-1.1-5.7-2.5-11.3-4.3-17-3.4-10.6-8.1-20.5-13.9-29.6-.2-.3-.1-.7.2-1,.1,0,.3-.1.4-.1,7.1.1,13.8.2,20.1,0,.7,0,1.3,0,2-.2,1.7-.4,3.5,0,5.3-.3,6.1-.7,12-1.5,17.7-2.5,6.2-1,12.8-2.5,19.8-4.3.6-.2.6-.4.2-.9-14.7-14.5-31.2-25.6-49.5-33.2-.3-.1-.4-.4-.3-.7,0-.1.1-.2.3-.3,21.9-10.9,41.6-25.3,59.6-41.9.7-.7.6-1-.4-1.1-2.4-.3-4.7-.5-7-.9-3.5-.5-7-.8-10.4-1.1-7.5-.5-15-.6-22.3-.4-1.7,0-3.4.2-5,.3-1.9.2-3.6.2-5.4.2-1.3,0-2.3.6-3.6.5-1,0-1.9,0-2.9.2-2.2.4-4.4.8-6.7,1-1.4.1-2.9.9-4.5.7-.2,0-.4-.2-.4-.4,0,0,0-.1,0-.2,13.8-19.4,24.5-40.6,32-63.6.2-.5,0-.6-.5-.4-21.8,8.9-43.5,21.1-61.8,36.1-.9.8-1.3.5-1.1-.6.6-3.8.9-7.6,1-11.4,0-3.8.7-7.6.4-11.4-.2-1.9-.3-3.9-.4-5.8-.4-10.7-1.9-21.2-4.6-31.6-.2-.7-.3-.7-.5,0,0,.5-.4,1-.7,1.3-14,16.7-26.7,35.3-35.5,55.2-.1.3-.4.4-.7.3-.1,0-.2-.1-.3-.3-7.3-15.5-17.2-28.5-29.6-38.9" vector-effect="non-scaling-stroke"/>
        <path class="cls-5" d="M851.6,691.9c1.1.2,2.2.1,3.2-.3" vector-effect="non-scaling-stroke"/>
        <path class="cls-5" d="M906,460.4c-6.8,0-13.6,0-20.2.5-.8,0-1.6.1-2.5.3-.8.2-1.7.3-2.5.4-6.9.7-14.1,1.9-21.5,3.6-19.7,4.5-38.4,10.4-56.1,17.7-.2,0-.4,0-.5-.2,0,0,0-.2,0-.3,6-18.2,10-36.7,12-55.5.4-3.4.6-7.2.6-11.3,0-5.8,0-9.7-.2-11.7-.2-2.6-.8-6.8-1.9-12.5" vector-effect="non-scaling-stroke"/>
        <path class="cls-5" d="M702.2,398.3c-5.9,8.7-10.6,16.6-14,23.6-8.1,16.5-14.9,34.6-20.2,54.4" vector-effect="non-scaling-stroke"/>
        <path class="cls-5" d="M667.9,476.4l-1.2-.9" vector-effect="non-scaling-stroke"/>
        <path class="cls-5" d="M666.7,475.5c-8-6.6-16.8-12-26.3-16.1-6.8-3-14.1-4.5-21.7-4.7" vector-effect="non-scaling-stroke"/>
        <path class="cls-5" d="M720.3,708.5c0,.1-.2.2-.2.4" vector-effect="non-scaling-stroke"/>
        <path class="cls-5" d="M720.1,708.8c-.1-.6-.5-1.2-1.2-1.9-10.9-11.1-19.6-23.6-26.1-37.5-.1-.3-.5-.4-.8-.3-.1,0-.2.1-.3.2-7.3,12.7-16.6,23.7-27.7,32.8" vector-effect="non-scaling-stroke"/>
        <path class="cls-5" d="M664.1,702.2c-.1.2-.3.2-.6,0" vector-effect="non-scaling-stroke"/>
        <path class="cls-5" d="M663.5,702.2c.4-.6.4-1.3,0-2.1-.4-.9-.6-1.6-.7-1.9-.9-4.5-1.8-8.8-2.5-13-.2-1,.2-1.8-.4-2.8-.1-.3-.2-.5-.2-.8.2-1.4.1-2.7-.2-4.1-.3-1.4-.4-2.9-.4-4.5,0-4.6,0-9.3,0-14.2,0-.2-.2-.4-.4-.4,0,0-.2,0-.2,0-10.8,7.1-22.9,12-35.7,14.5-.5,0-.7,0-.6-.6,2.6-13.4,7.5-26.2,14.6-38.3.2-.3,0-.4-.2-.4-4.4.2-9.5.5-13.9-.2-1.5-.3-3-.4-4.4-.5-4.8-.4-9.8-1.7-14.5-2.9,0,0-.9-.3-2.4-.9-1.1-.4-2.1-.3-3,.4" vector-effect="non-scaling-stroke"/>
        <path class="cls-5" d="M598.4,629.5l.7-1.2" vector-effect="non-scaling-stroke"/>
        <path class="cls-5" d="M599.1,628.3c8.1-11,17.9-20.2,29.4-27.7.4-.2.4-.5,0-.7-11.6-6.1-21.8-14.2-30.6-24.5-.2-.3-.2-.5.1-.6,11.7-5.9,23.8-9.3,36.5-10,.7,0,1.3-.2,1.8-.5.3-.2.4-.5.2-.8,0,0,0,0,0,0-4.7-7.5-8.4-15.6-11.4-24.4-1.4-4.1-2.7-8.5-4-13.3,0-.2-.2-1.1-.4-2.6-.1-.9-.4-1.8-.8-2.6" vector-effect="non-scaling-stroke"/>
        <path class="cls-5" d="M720.1,708.8c-3.8,9.4-8.7,18.2-14.5,26.5-4.2,5.9-9.2,11-15,15.4-.8.6-1.9.5-2.5-.3-5.1-5.9-9.4-12.4-13-19.5-4.6-9.2-8.3-18.7-11-28.7" vector-effect="non-scaling-stroke"/>
        <path class="cls-5" d="M663.5,702.2c-.5.7-.9,1.1-1.2,1.4-8.4,6.7-17.3,11.9-26.8,15.6-3.6,1.4-7.7,2.4-12.2,2.9-.5,0-1-.2-1.2-.7-.6-1.7-1.1-3.3-1.2-4.9-.4-3.4-1.2-6.7-1.2-10,0-6-.3-12.1.4-18,.3-2.1.5-4.2.6-6.4.2-2.8,1-5.4,1.3-8.1,0-.4-.3-.8-.7-.8,0,0-.1,0-.2,0-9.2,1.6-18.5,2-28,1.1-1.8-.2-3.4-.6-5.1-.9-2.9-.5-5.7-1.6-8.6-2.5" vector-effect="non-scaling-stroke"/>
        <path class="cls-5" d="M666.7,475.5c.1.4.4.8.7,1.2.2.2.3.5.2.8-2.2,8.2-4,17.4-5.3,27.5-.4,3.2-.7,6-.9,8.3-.2,2.8-.3,5.6-.5,8.3-.2,3.3-.2,7,0,11,0,.3-.2.6-.5.6-.1,0-.2,0-.3,0-11.7-6.9-24.5-11.1-38.6-12.3-.5,0-1.1,0-1.8-.2" vector-effect="non-scaling-stroke"/>
        <path class="cls-5" d="M620,520.7c0,0,.2,0,.2-.1,0,0,0-.1,0-.2-1-4.6-1.8-8.7-2.2-12.1-.5-4-1.2-8-1.4-12,0-2.3-.2-4.6-.3-6.7-.7-11-.2-22.5,1.9-33.4,0-.5,0-.7-.2-1.1" vector-effect="non-scaling-stroke"/>
        <path class="cls-5" d="M599.1,628.3c-8.9-3.1-17.1-7.2-24.4-12.1-4.6-3.1-8.7-6.9-12.3-11.2-.2-.2-.4-.2-.7,0" vector-effect="non-scaling-stroke"/>
        <path class="cls-5" d="M561.7,604.1c.4,0,.7-.2.8-.4,8.4-12.3,21.2-21.4,34.4-28.2.3-.2.4-.6.3-.9,0,0,0,0,0-.1-7.7-9.2-14.1-19.2-19.2-30.2-1.7-3.6-3.3-8.5-4.9-14.6" vector-effect="non-scaling-stroke"/>
        <path class="cls-5" d="M598.4,629.5c-8.7,11.6-16.3,25.6-18.8,39.8,0,.3-.2.5-.3.6-.2.1-.4.3-.6.4" vector-effect="non-scaling-stroke"/>
        <path class="cls-5" d="M620,520.7c-6.8-.6-14.4-.3-22.7.8-8.4,1.1-16,3.6-22.8,7.3-.3.2-.6.2-.9.2h-.5" vector-effect="non-scaling-stroke"/>
      </g>
      <path class="cls-3" d="M813.1,391.4c-11.4,6.4-21.4,13.2-30.2,20.5-17,13.9-32.6,29.3-46.9,46-.2.3-.6.3-.9,0-.1,0-.2-.2-.2-.3-4-16.5-10.3-31.5-18.9-45-2.9-4.5-7.2-9.3-13-14.2-.2-.1-.2-.5,0-1,20.8-29.6,46.3-55.9,73.3-79.8.2-.2.5-.2.7,0,0,0,0,0,0,0,15.1,18.2,26.9,38.6,33.4,61.3,1.2,4.1,2.1,8.3,2.8,12.4Z"/>
      <path class="cls-3" d="M906,460.4c-6.8,0-13.6,0-20.2.5-.8,0-1.6.1-2.5.3-.8.2-1.7.3-2.5.4-6.9.7-14.1,1.9-21.5,3.6-19.7,4.5-38.4,10.4-56.1,17.7-.2,0-.4,0-.5-.2,0,0,0-.2,0-.3,6-18.2,10-36.7,12-55.5.4-3.4.6-7.2.6-11.3,0-5.8,0-9.7-.2-11.7-.2-2.6-.8-6.8-1.9-12.5,14.7-8.3,30.1-15.5,46-21.7,23.6-9.2,47.5-16.6,71.7-22.3.4,0,.6,0,.6.5-2.3,38.4-9.4,77.3-25.5,112.6Z"/>
      <path class="cls-3" d="M702.2,398.3c-5.9,8.7-10.6,16.6-14,23.6-8.1,16.5-14.9,34.6-20.2,54.4l-1.2-.9c-8-6.6-16.8-12-26.3-16.1-6.8-3-14.1-4.5-21.7-4.7,1.3-7.1,2.7-13.3,4.2-18.7,5.5-19.3,12.9-39.1,22.3-59.6.2-.3.4-.5.8-.4,19.8,2.5,39.3,8.9,55.1,21.1.4.3.8.7,1.1,1.1Z"/>
      <path class="cls-2" d="M813.1,391.4c0,0,.1,0,.2,0,1.1,5.7,1.7,9.9,1.9,12.5.1,2.1.2,6,.2,11.7,0,4.1-.2,7.8-.6,11.3-2.1,18.8-6.1,37.2-12,55.5,0,.2,0,.4.3.5,0,0,.2,0,.3,0,17.7-7.3,36.4-13.2,56.1-17.7,7.5-1.7,14.6-2.9,21.5-3.6.8,0,1.7-.2,2.5-.4.8-.2,1.7-.3,2.5-.3,6.7-.4,13.4-.6,20.2-.5,0,0,0,0,.1.1-5.9,13.1-12.7,24.9-20.4,35.5-12.3,16.8-26.7,33.2-43.1,49.1-.7.7-1.7,1.2-2.3,1.8-.6.6-.5,1,.4,1.2,16.8,2.8,32.9,7.1,48.3,13.1,14,5.4,26,12.3,36,20.6,0,.1,0,.3,0,.4-.4.4-1.2,1.1-2.4,1.9-11.9,8.3-24,15.3-36.3,20.9-18.5,8.5-37.4,15.2-56.6,20.2-.2,0-.3.2-.2.4,0,0,0,0,0,.1,6.4,6.4,12.2,13.3,17.4,20.5,4.7,6.5,8.3,12.1,10.9,16.8,4.6,8.5,7.8,17.5,9.6,27.1.1,0,0,0-.1.2l-12.5,1.2c-1.3-.3-2.4-.2-3.2.3-2.8.2-5.7.3-8.6.2-21-.3-41.2-3-60.5-8.1-.3,0-.7.1-.8.5,0,0,0,.2,0,.3,2.1,14.2,2.3,28.5.4,42.7-.7,5.2-2.7,11.5-6,18.8-.4.2-.5.4-.5.6,0-.5-.2-.8-.4-.8-9.3-3.5-18.3-8.2-26.9-14.1-10.2-7.1-19.6-14.9-28.1-23.4,6-14.8,9.1-30.4,9.4-46.9,0-.3.3-.5.5-.5,0,0,.2,0,.3,0,15.1,10,31.5,17.3,49.1,22,.4.1.6.2,1,.5.4.3.6.2.6-.3,0-.9-.1-1.8-.3-2.7-1.1-5.7-2.5-11.3-4.3-17-3.4-10.6-8.1-20.5-13.9-29.6-.2-.3-.1-.7.2-1,.1,0,.3-.1.4-.1,7.1.1,13.8.2,20.1,0,.7,0,1.3,0,2-.2,1.7-.4,3.5,0,5.3-.3,6.1-.7,12-1.5,17.7-2.5,6.2-1,12.8-2.5,19.8-4.3.6-.2.6-.4.2-.9-14.7-14.5-31.2-25.6-49.5-33.2-.3-.1-.4-.4-.3-.7,0-.1.1-.2.3-.3,21.9-10.9,41.6-25.3,59.6-41.9.7-.7.6-1-.4-1.1-2.4-.3-4.7-.5-7-.9-3.5-.5-7-.8-10.4-1.1-7.5-.5-15-.6-22.3-.4-1.7,0-3.4.2-5,.3-1.9.2-3.6.2-5.4.2-1.3,0-2.3.6-3.6.5-1,0-1.9,0-2.9.2-2.2.4-4.4.8-6.7,1-1.4.1-2.9.9-4.5.7-.2,0-.4-.2-.4-.4,0,0,0-.1,0-.2,13.8-19.4,24.5-40.6,32-63.6.2-.5,0-.6-.5-.4-21.8,8.9-43.5,21.1-61.8,36.1-.9.8-1.3.5-1.1-.6.6-3.8.9-7.6,1-11.4,0-3.8.7-7.6.4-11.4-.2-1.9-.3-3.9-.4-5.8-.4-10.7-1.9-21.2-4.6-31.6-.2-.7-.3-.7-.5,0,0,.5-.4,1-.7,1.3-14,16.7-26.7,35.3-35.5,55.2-.1.3-.4.4-.7.3-.1,0-.2-.1-.3-.3-7.3-15.5-17.2-28.5-29.6-38.9,5.3-19.8,12.1-37.9,20.2-54.4,3.5-7.1,8.2-15,14-23.6.4,0,.6-.3.7-.8-.1.5,0,.8,0,1,5.8,4.9,10.1,9.6,13,14.2,8.6,13.5,14.9,28.5,18.9,45,0,.3.4.6.8.5.1,0,.3-.1.3-.2,14.3-16.7,30-32,46.9-46,8.8-7.2,18.8-14,30.2-20.5Z"/>
      <path class="cls-2" d="M666.7,475.5c.1.4.4.8.7,1.2.2.2.3.5.2.8-2.2,8.2-4,17.4-5.3,27.5-.4,3.2-.7,6-.9,8.3-.2,2.8-.3,5.6-.5,8.3-.2,3.3-.2,7,0,11,0,.3-.2.6-.5.6-.1,0-.2,0-.3,0-11.7-6.9-24.5-11.1-38.6-12.3-.5,0-1.1,0-1.8-.2,0,0,.2,0,.2-.1,0,0,0-.1,0-.2-1-4.6-1.8-8.7-2.2-12.1-.5-4-1.2-8-1.4-12,0-2.3-.2-4.6-.3-6.7-.7-11-.2-22.5,1.9-33.4,0-.5,0-.7-.2-1.1.3,0,.6-.2.7-.3,7.6.2,14.9,1.8,21.7,4.7,9.6,4.1,18.3,9.5,26.3,16.1Z"/>
      <path class="cls-3" d="M618,455c.1.4.3.7.2,1.1-2,11-2.5,22.4-1.9,33.4.1,2.2.2,4.4.3,6.7.2,4,.9,8,1.4,12,.4,3.4,1.2,7.5,2.2,12.1,0,0,0,.1,0,.2,0,0-.1.1-.2.1-6.8-.6-14.4-.3-22.7.8-8.4,1.1-16,3.6-22.8,7.3-.3.2-.6.2-.9.2h-.5c-4.7-19.8-5.5-39.7-5-60.5,0-.3.2-.6.5-.8,14.8-7.2,30.6-12.2,47.2-12.9,1,0,1.8,0,2.3.2Z"/>
      <path class="cls-1" d="M720.3,708.5c0,.1-.2.2-.2.4-.1-.6-.5-1.2-1.2-1.9-10.9-11.1-19.6-23.6-26.1-37.5-.1-.3-.5-.4-.8-.3-.1,0-.2.1-.3.2-7.3,12.7-16.6,23.7-27.7,32.8-.1.2-.3.2-.6,0,.4-.6.4-1.3,0-2.1-.4-.9-.6-1.6-.7-1.9-.9-4.5-1.8-8.8-2.5-13-.2-1,.2-1.8-.4-2.8-.1-.3-.2-.5-.2-.8.2-1.4.1-2.7-.2-4.1-.3-1.4-.4-2.9-.4-4.5,0-4.6,0-9.3,0-14.2,0-.2-.2-.4-.4-.4,0,0-.2,0-.2,0-10.8,7.1-22.9,12-35.7,14.5-.5,0-.7,0-.6-.6,2.6-13.4,7.5-26.2,14.6-38.3.2-.3,0-.4-.2-.4-4.4.2-9.5.5-13.9-.2-1.5-.3-3-.4-4.4-.5-4.8-.4-9.8-1.7-14.5-2.9,0,0-.9-.3-2.4-.9-1.1-.4-2.1-.3-3,.4l.7-1.2c8.1-11,17.9-20.2,29.4-27.7.4-.2.4-.5,0-.7-11.6-6.1-21.8-14.2-30.6-24.5-.2-.3-.2-.5.1-.6,11.7-5.9,23.8-9.3,36.5-10,.7,0,1.3-.2,1.8-.5.3-.2.4-.5.2-.8,0,0,0,0,0,0-4.7-7.5-8.4-15.6-11.4-24.4-1.4-4.1-2.7-8.5-4-13.3,0-.2-.2-1.1-.4-2.6-.1-.9-.4-1.8-.8-2.6.7,0,1.2.1,1.8.2,14,1.3,26.9,5.4,38.6,12.3.3.2.6,0,.8-.2,0,0,0-.2,0-.3-.2-4-.3-7.7,0-11,.1-2.8.3-5.6.5-8.3.2-2.3.4-5.1.9-8.3,1.3-10.1,3.1-19.3,5.3-27.5,0-.3,0-.6-.2-.8-.4-.4-.6-.8-.7-1.2l1.2.9c12.4,10.4,22.3,23.4,29.6,38.9.1.3.5.4.7.3.1,0,.2-.2.3-.3,8.8-19.9,21.5-38.5,35.5-55.2.3-.4.6-.9.7-1.3.1-.7.3-.7.5,0,2.7,10.4,4.2,20.9,4.6,31.6,0,2,.2,3.9.4,5.8.3,3.8-.3,7.6-.4,11.4,0,3.8-.4,7.6-1,11.4-.2,1.2.2,1.4,1.1.6,18.3-15,39.9-27.2,61.8-36.1.5-.2.6,0,.5.4-7.6,23-18.3,44.1-32,63.6-.1.2,0,.4.1.6,0,0,.1,0,.2,0,1.6.2,3-.6,4.5-.7,2.3-.2,4.5-.5,6.7-1,1-.2,1.9-.3,2.9-.2,1.3,0,2.2-.6,3.6-.5,1.7,0,3.5,0,5.4-.2,1.6-.2,3.3-.3,5-.3,7.4-.2,14.8,0,22.3.4,3.5.2,6.9.6,10.4,1.1,2.3.3,4.7.6,7,.9,1,0,1.1.5.4,1.1-18,16.6-37.7,30.9-59.6,41.9-.3.1-.4.5-.2.7,0,.1.2.2.3.3,18.3,7.6,34.8,18.7,49.5,33.2.4.4.4.7-.2.9-7,1.9-13.6,3.3-19.8,4.3-5.7.9-11.6,1.8-17.7,2.5-1.8.2-3.6,0-5.3.3-.7.2-1.4.2-2,.2-6.3,0-13,0-20.1,0-.4,0-.7.3-.7.7,0,.1,0,.3.1.4,5.9,9.1,10.5,19,13.9,29.6,1.8,5.6,3.2,11.3,4.3,17,.2.9.3,1.8.3,2.7,0,.5-.2.7-.6.3-.3-.3-.5-.4-1-.5-17.6-4.6-34-12-49.1-22-.2-.2-.6,0-.7.2,0,0,0,.2,0,.3-.3,16.5-3.5,32.1-9.4,46.9ZM724.6,564.8c7.1-13.6,11.7-28.1,13.7-43.3,0-.3,0-.3-.2-.1-12.1,10.4-22.6,21.5-31.1,34.9-.2.3-.3.3-.3,0-.2-13.3-3-26.2-8.3-38.7-.2-.4-.4-.4-.5,0-6.2,14.1-9.9,27.7-11,40.8,0,.6-.2.7-.6.2-6.2-9.7-14.3-17.8-24.3-24,0,0-.2,0-.3,0,0,0,0,0,0,.1.5,12.7,3.3,24.7,8.4,36.2.1.3,0,.3-.2.2-9.9-4.4-20.4-6.4-31.6-6.2-.3,0-.4.2-.2.4,6,9.4,13.5,17.2,22.6,23.3.4.3.4.4-.1.5-11,1.4-20.7,5.6-30.4,11-.2,0-.2.2,0,.3,9.5,4.7,19.6,7.2,30.2,7.4.4,0,.5.1.1.4-8.8,6.7-16.2,14.9-22.1,24.5-.2.4-.1.5.3.5,10.8-1.1,20.8-4.2,30-9.2.6-.3.7-.2.4.4-4.9,10-7.9,20.8-9,32.5,0,.4.1.5.5.3,9.7-6.7,17.6-14.6,23.7-23.9.2-.4.4-.3.4.1.4,11.8,3,23.2,7.8,34.2,0,0,.1.1.2,0,0,0,0,0,0,0,5.8-10.7,9.3-22.1,10.6-34.1,0-.5.2-.6.5-.1,6.2,10.2,15.2,19.1,25.3,26.4.3.3.5.2.5-.3-.2-12.9-2.9-25-8.1-36.3-.1-.3,0-.4.2-.2,12.1,5.7,25.3,9,39.7,9.9.3,0,.3,0,.2-.3-7.5-11.3-16.8-20.4-28-27.4-.4-.3-.4-.4.1-.5,2.6-.4,5.4-.6,8-1.1,12.4-2.4,24.3-6.4,35.6-11.9.3-.1.3-.3,0-.4-13.7-5.3-27.8-7.9-42.3-7.8-.4,0-.4-.1-.1-.3,12.7-8.8,24-20,33.9-33.6.2-.3.2-.5-.2-.4-15.7,3.1-30.2,8.5-43.4,16.2-.4.2-.5.1-.3-.3Z"/>
      <path class="cls-3" d="M925,581.8c-10-8.3-22-15.2-36-20.6-15.4-6-31.5-10.3-48.3-13.1-.9-.1-1-.5-.4-1.2.7-.7,1.6-1.2,2.3-1.8,16.4-15.9,30.8-32.3,43.1-49.1,7.7-10.6,14.5-22.4,20.4-35.5,18,.5,35.8,3,53.4,7.3,20.1,5,39.6,11.6,58.5,20,.1,0,.2.2.1.3,0,0,0,0,0,0-19.2,25-39.7,47.7-61.5,68.1-8.6,8-18.8,16.4-30.6,25.2-.1.1-.3.2-.5.2-.2,0-.4,0-.5,0Z"/>
      <path class="cls-2" d="M620,520.7c.4.8.7,1.7.8,2.6.2,1.5.4,2.4.4,2.6,1.3,4.7,2.6,9.1,4,13.3,2.9,8.8,6.7,16.9,11.4,24.4.2.3,0,.6-.2.8,0,0,0,0,0,0-.6.3-1.2.5-1.8.5-12.6.8-24.8,4.1-36.5,10-.3.2-.3.4-.1.6,8.8,10.2,19,18.4,30.6,24.5.4.2.4.4,0,.7-11.5,7.5-21.3,16.7-29.4,27.7-8.9-3.1-17.1-7.2-24.4-12.1-4.6-3.1-8.7-6.9-12.3-11.2-.2-.2-.4-.2-.7,0,.3-.3.3-.6,0-.9.4,0,.7-.2.8-.4,8.4-12.3,21.2-21.4,34.4-28.2.3-.2.4-.6.3-.9,0,0,0,0,0-.1-7.7-9.2-14.1-19.2-19.2-30.2-1.7-3.6-3.3-8.5-4.9-14.6.2-.3.2-.5,0-.7h.5c.3,0,.6,0,.9-.2,6.7-3.7,14.3-6.2,22.8-7.3,8.3-1.1,15.9-1.4,22.7-.8Z"/>
      <path class="cls-3" d="M573,529.8c1.6,6.1,3.2,11,4.9,14.6,5.1,10.9,11.5,21,19.2,30.2.2.3.2.7,0,.9,0,0,0,0-.1,0-13.2,6.8-26,15.9-34.4,28.2-.1.2-.4.3-.8.4-10-12.1-17.8-27-23.5-41.6-.1-.3,0-.6.1-.9,10-12.7,21.3-23.9,34.7-31.9Z"/>
      <path class="cls-3" d="M925,582.2c.2.1.5.2.7.4,23.3,19.7,40.1,46.4,51.1,74.6,0,.2,0,.4-.2.5-15.8,6.7-31.2,12.5-46.1,17.6-20.1,6.8-40.6,11.7-61.5,14.9-.5,0-1,.1-1.6.1-1.8-9.6-5-18.6-9.6-27.1-2.6-4.7-6.2-10.3-10.9-16.8-5.2-7.3-11-14.1-17.4-20.5-.1-.1-.1-.4,0-.5,0,0,0,0,.1,0,19.2-5,38.1-11.8,56.6-20.2,12.3-5.6,24.4-12.6,36.3-20.9,1.2-.8,2-1.5,2.4-1.9Z"/>
      <path class="cls-3" d="M561.7,605c.3-.2.6-.1.7,0,3.5,4.3,7.6,8.1,12.3,11.2,7.3,4.9,15.4,8.9,24.4,12.1l-.7,1.2c-8.7,11.6-16.3,25.6-18.8,39.8,0,.3-.2.5-.3.6-.2.1-.4.3-.6.4-12.7-5.2-24.5-13.7-34.4-23.1-.2-.2-.3-.5-.2-.8,3.8-14.5,9.4-29,17.7-41.4Z"/>
      <path class="cls-2" d="M663.5,702.2c-.5.7-.9,1.1-1.2,1.4-8.4,6.7-17.3,11.9-26.8,15.6-3.6,1.4-7.7,2.4-12.2,2.9-.5,0-1-.2-1.2-.7-.6-1.7-1.1-3.3-1.2-4.9-.4-3.4-1.2-6.7-1.2-10,0-6-.3-12.1.4-18,.3-2.1.5-4.2.6-6.4.2-2.8,1-5.4,1.3-8.1,0-.4-.3-.8-.7-.8,0,0-.1,0-.2,0-9.2,1.6-18.5,2-28,1.1-1.8-.2-3.4-.6-5.1-.9-2.9-.5-5.7-1.6-8.6-2.5,0-.5-.3-.7-.8-.6.3-.1.5-.2.6-.4.2-.1.3-.3.3-.6,2.5-14.2,10.1-28.2,18.8-39.8.9-.7,2-.9,3-.4,1.5.6,2.3.9,2.4.9,4.8,1.1,9.7,2.5,14.5,2.9,1.5.1,2.9.3,4.4.5,4.4.8,9.5.4,13.9.2.3,0,.4.1.2.4-7.1,12.1-12,24.9-14.6,38.3,0,.5,0,.7.6.6,12.8-2.6,24.9-7.4,35.7-14.5.2-.1.4,0,.6.1,0,0,0,.1,0,.2-.1,4.9-.1,9.7,0,14.2,0,1.6.2,3.1.4,4.5.3,1.4.3,2.7.2,4.1,0,.3,0,.6.2.8.6,1,.2,1.8.4,2.8.7,4.1,1.6,8.5,2.5,13,0,.3.3,1,.7,1.9.4.9.3,1.6,0,2.1Z"/>
      <path class="cls-2" d="M720.1,708.8c-3.8,9.4-8.7,18.2-14.5,26.5-4.2,5.9-9.2,11-15,15.4-.8.6-1.9.5-2.5-.3-5.1-5.9-9.4-12.4-13-19.5-4.6-9.2-8.3-18.7-11-28.7,11.1-9.1,20.3-20.1,27.7-32.8.2-.3.5-.4.8-.2.1,0,.2.1.2.3,6.5,13.9,15.2,26.4,26.1,37.5.7.7,1.1,1.3,1.2,1.9Z"/>
      <path class="cls-3" d="M579.5,670.8c2.9.9,5.6,2,8.6,2.5,1.7.3,3.3.7,5.1.9,9.5.9,18.8.5,28-1.1.4,0,.8.2.9.6,0,0,0,.1,0,.2-.3,2.8-1.1,5.4-1.3,8.1-.2,2.1-.4,4.3-.6,6.4-.7,5.9-.4,12-.4,18,0,3.4.8,6.7,1.2,10,.2,1.5.6,3.2,1.2,4.9.2.5.7.8,1.2.7,4.5-.5,8.5-1.5,12.2-2.9,9.5-3.7,18.4-8.9,26.8-15.6.3-.2.7-.7,1.2-1.4.3.2.5.2.6,0,2.8,10,6.4,19.6,11,28.7,3.6,7.1,7.9,13.6,13,19.5.6.7,1.8.9,2.5.3,5.8-4.4,10.8-9.5,15-15.4,5.9-8.3,10.7-17.1,14.5-26.5,0-.1.2-.2.2-.4,8.5,8.5,17.8,16.3,28.1,23.4,8.6,5.9,17.5,10.6,26.9,14.1.2,0,.3.3.4.8-8.2,17.3-21.5,32.5-36.1,44.5-.3.2-.6.2-.9,0-18-11-35.4-23.8-49.1-39.5-.2-.3-.5-.3-.8-.1-13.4,8.9-28.1,14.8-44.4,17.7-.2,0-.3,0-.4-.2-9.1-14.9-16.7-29.8-21.6-46.6,0-.3-.3-.5-.7-.5-13.1,1.3-26.9-.2-41.6-4.4-.3,0-.5-.3-.6-.6-2.3-15-2.9-31.3-.2-46.4Z"/>
      <path class="cls-3" d="M851.6,691.9c1.1.2,2.2.1,3.2-.3l12.5-1.2c4,24.1.3,48.8-7.2,71.8,0,.3-.3.5-.6.4-27.7-2-56.9-6.8-83.3-16.5,3.3-7.4,5.3-13.6,6-18.8,1.9-14.2,1.7-28.5-.4-42.7,0-.4.2-.7.5-.7,0,0,.2,0,.3,0,19.3,5.1,39.5,7.8,60.5,8.1,2.9,0,5.8,0,8.6-.2Z"/>
      <path class="cls-4" d="M854.8,691.6c-1,.4-2.1.5-3.2.3.9-.5,1.9-.6,3.2-.3Z"/>
      <path class="cls-1" d="M484.6,951.2c-6,7.6-12.7,13.6-22.3,16.6-4,1.2-9.2,1.9-15.8,1.8-7.9,0-14.4-.1-19.3-.3-16.9-.5-31.5-13.8-35.6-30.3-.8-3.2-1.2-8.8-1.1-16.7.1-27,.1-52.8,0-77.4,0-.3.1-.5.4-.6l25.5-12.8c.3-.2.5,0,.5.3,0,29.4,0,58.8,0,88.3,0,4.7.4,8.1,1.2,10.2,3.4,8.7,10.9,12.9,20.1,12.9,4.3,0,8.3,0,11.8-.2,4.6-.2,8.6-2,11.9-5.7,8.3-9,17.3-18.8,26.9-29.3,7.2-7.8,10.7-12.3,18.5-15.4,11.4-4.5,21.9.1,30.3,8.4,4.6,4.5,8.9,8.8,13.2,12.9,15.9,15.5,14.1,41.7-3.6,54.8-11.5,8.5-26.4,9.6-39,2.9-3.5-1.9-7.5-5.1-11.9-9.7-3.8-4-7.5-7.7-11-11-.3-.2-.7-.2-.9,0,0,0,0,0,0,0ZM503.6,932c5.1,4.9,10.2,10.3,15.3,15.1,5.6,5.2,14.6,2.7,16.4-4.7.8-3.4.1-6.3-2-8.6-3.4-3.6-6.7-6.9-9.9-9.8-5-4.4-10.3-3.6-14.5,1.3-1.6,1.9-3.4,3.8-5.3,5.7-.3.3-.3.8,0,1,0,0,0,0,0,0Z"/>
      <path class="cls-1" d="M766.1,969c0,.3-.3.6-.6.6h0c-49.8,0-100,0-150.7,0-18.2,0-33.3-11.7-38.3-29-1-3.5-1.5-8.7-1.5-15.6.1-27,.1-53.6,0-79.8,0-.4.2-.7.6-.9l25.4-12.7c.1,0,.3,0,.4.1,0,0,0,0,0,.1,0,29.2,0,59.3,0,90.5,0,12,8.1,21.1,20.4,21.1,48.6,0,96.6,0,143.9,0,.2,0,.4.2.4.4h0s0,25.4,0,25.4Z"/>
      <path class="cls-1" d="M964.3,954c-11.7,10.4-25.2,15.7-40.5,15.7-44.5,0-88,0-130.5,0-.5,0-.8-.4-.8-.8v-24.8c0-.3.2-.5.6-.5,2.3,0,4.6,0,6.8,0,39.3-.2,79.7-.2,121.1,0,4.9,0,8.9-.4,12.2-1.2,17.4-4.4,24-21.8,24-38.2,0-21.6,0-41.1,0-58.7s.2-.9.7-1.1l25.2-12.6c.3-.2.5,0,.5.3,0,31.4,0,60.6,0,87.6,0,4.9.4,8.5,1.2,10.7,3.4,8.9,10.8,13.2,20.1,13.1,23.5,0,46.9,0,70.3,0,.4,0,.7.2.7.7v25c0,.4-.2.6-.6.6-26.1,0-52,0-77.5,0-13.2,0-24.1-5.2-32.5-15.6-.2-.3-.5-.3-.8,0Z"/>
      <path class="cls-1" d="M1089.3,844.3l25.5-12.8c.1,0,.3,0,.3.1,0,0,0,0,0,.1,0,30.7,0,61.2,0,91.7,0,11,8.8,19.9,19.8,19.9,19.5,0,39.1,0,58.6,0s.6.2.6.6v25.1c0,.4-.2.6-.6.6-20.7,0-41.8,0-63.3,0-14.4,0-25.7-5.4-33.8-16.2-6.5-8.7-7.8-17.4-7.7-28.9.1-26.5.1-53,0-79.4,0-.4.2-.7.5-.9Z"/>
      <path class="cls-1" d="M312.3,943.3c14.2,0,26.6-10,30.8-23.2,1.1-3.4,1.6-7.9,1.5-13.5-.1-14.3-.1-28.7,0-43.2,0-.3.1-.6.5-.7l25.3-12.9c.3-.2.5,0,.5.3,0,19.9,0,40,0,60.1,0,15.5-5.5,29.2-16.6,41.1-11.4,12.2-26.4,18.3-44.9,18.3-19.3,0-38.3,0-57.1,0-17.9,0-33.3-12-38.1-29-1-3.8-1.5-8.3-1.5-13.5.1-17.1.1-33.4,0-49.1,0-.4.2-.7.5-.8l25.3-12.7c.2,0,.4,0,.5.2,0,0,0,.1,0,.2,0,19.1,0,38.4,0,57.9,0,8.7,4.6,16,12.7,19.2,2.3.9,5.4,1.4,9.2,1.3,17.3,0,34.4-.1,51.3,0Z"/>
      <path class="cls-1" d="M872.6,875.4c1.8.2,3.7-.1,5.4.2,7.7,1.4,11.8,5.9,12.2,13.4.4,6.7-3.6,11.3-9.6,14.2-6.8,3.3-13,6.4-18.8,9.4-.2,0-.4,0-.5-.2,0,0,0-.1,0-.2v-14.2c0-.4.1-.6.5-.8l13.5-6.7c1.7-.8,1.6-1.2-.3-1.2-9,.3-16.2-4-16.4-14,0-7.6,4.6-11.6,11.4-14.7,5.6-2.6,11.2-5.4,16.8-8.4.5-.2.7-.1.7.4v14c0,.4-.2.7-.5.9l-14.4,7.2c-.6.3-.6.5,0,.6Z"/>
      <rect class="cls-1" x="277.1" y="869.3" width="29.5" height="29.5" rx="2.7" ry="2.7" transform="translate(-540.3 466.7) rotate(-45.1)"/>
      <rect class="cls-1" x="1021.4" y="869.3" width="29.5" height="29.5" rx="2.7" ry="2.7" transform="translate(-321.8 989.2) rotate(-44.9)"/>
      <rect class="cls-1" x="1133.3" y="994.5" width="29.5" height="29.5" rx="2.7" ry="2.7" transform="translate(-377.5 1104.7) rotate(-44.9)"/>
      <path class="cls-1" d="M357,1128.4c6-9.4-.7-22-12.1-22.1-4.3,0-8.6,0-12.9,0-4.2,0-7.7-.4-10.7-1.5-22.9-8-26.7-37.9-6.6-51.4,6.1-4.1,12.5-4.9,19.8-4.8,10.4.1,20.8.1,31.4,0,0,0,.2,0,.2.2,0,0,0,0,0,.1l-13.8,13.8c-.3.3-.6.4-1,.4-6.4,0-13,0-19.9,0-6.2,0-10.7,2.3-13.4,7.1-4.5,7.8-1,18,7.6,20.9,1.9.6,4.2.9,6.9.9,8.8-.2,18-1,26.2,3.6,22.2,12.2,18.7,44.9-5.3,52.7-3.1,1-8,1.5-14.7,1.4-9.9-.1-19.6-.2-29.2,0-.4,0-.6-.2-.6-.6v-13.2c0-.4.2-.6.6-.6,11.7,0,23.2,0,34.6,0,5.7,0,10-2.3,12.8-6.7Z"/>
      <rect class="cls-1" x="1030" y="1048.8" width="14.8" height="100.7" rx=".3" ry=".3"/>
      <path class="cls-1" d="M833.1,1097.4c2.1,1.2,4,2.8,5.6,4.6,14.1,15.5,7.6,39.8-12.3,46.2-3.1,1-7.7,1.4-13.9,1.4-13.4-.2-25.6-.2-36.6,0-.2,0-.4-.2-.4-.4v-98.4c0-.2.2-.3.4-.3h0c9.6.1,19.2.1,29,0,6.8,0,11.8.4,15,1.5,9.2,3.2,16.2,10.7,18.5,20.2,2.1,8.8.3,16.9-5.5,24.3-.3.4-.2.7.2.9ZM789.7,1065.1v27.6c.1.2.3.4.5.4h20.7c7.9,0,14.2-6.4,14.2-14.2h0c0-7.9-6.4-14.2-14.3-14.1h-20.7c-.2,0-.4.2-.4.4h0ZM789.8,1107.3v27.8c0,.1,0,.2.2.2h27.9c7.9,0,14.2-6.2,14.2-14v-.2c0-7.8-6.3-14.1-14.2-14.1h-27.9c-.1,0-.2,0-.2.2Z"/>
      <path class="cls-1" d="M442.2,1098.5c.4-6-1.5-10.2-5.7-12.5-1.6-.9-4-1.3-7.4-1.3-12.3,0-24.4,0-36.3,0-.7,0-.8-.2-.3-.7l13.3-13.3c.2-.2.5-.4.9-.4,9.9,0,19.4,0,28.4,0,12.8.1,21.5,10.3,21.5,22.7,0,19.3,0,37.9,0,55.8,0,.4-.2.6-.6.6-22.8,0-38.7,0-47.5,0-2.8,0-5.8-.7-8.9-2.1-14.3-6.4-19.5-24.3-10.6-37.1,5.2-7.4,12.6-11.1,22.1-11.1,10.3,0,20.5,0,30.5,0,.4,0,.6-.2.6-.6ZM442.2,1134.7v-20.8c0-.2-.2-.4-.4-.4h-31.9c-6,0-11,4.8-11,10.7h0v.2c0,5.9,4.9,10.7,11,10.7h31.8c.2,0,.4-.2.4-.4h0Z"/>
      <path class="cls-1" d="M528.5,1085.3v63.7c0,.3-.2.5-.5.5h-13.3c-.4,0-.5-.2-.5-.6v-63.6c0-.3-.2-.6-.6-.6h-27.7c-.4,0-.6.2-.6.6v63.6c0,.4-.2.5-.5.5h-13.3c-.3,0-.5-.2-.5-.5h0v-63.7c0-.4.1-.7.4-.9l13.5-13.5c.3-.3.8-.5,1.2-.5,19.6.1,39.7.1,60.1,0,4.4,0,7.8.3,10.1,1,6.8,1.9,12.6,7.7,14.5,14.6.6,2.4,1,5,1,7.9,0,18.4,0,36.8,0,55.2,0,.3-.2.5-.5.5h-13.3c-.4,0-.6-.2-.6-.6,0-17.7,0-35,0-51.9,0-8.2-4.9-12.4-13-12.3-5.4.1-10.5.1-15.3,0-.4,0-.6.2-.6.6Z"/>
      <path class="cls-1" d="M641.9,1098.4c.1-5.3-.7-9.7-5.7-12.4-1.5-.8-4.1-1.2-7.8-1.2-12,0-23.9,0-35.8,0-.7,0-.9-.3-.3-.8l12.6-13.1c.3-.4.8-.6,1.3-.6,7.8,0,15.7,0,23.7,0,5,0,8.8.3,11.4,1.2,9.4,3.1,15,11.4,15,21.3,0,18.2,0,36.9,0,56.1,0,.4-.2.6-.6.6-15.3,0-30.3,0-44.8,0-10.1,0-17.7-4-22.9-12.1-6.8-10.7-4.1-24.7,5.7-32.7,6.1-5,12.5-5.8,20.4-5.7,9.1.1,18.1.1,27.1,0,.4,0,.7-.2.7-.7ZM641.9,1134.8v-21c0-.2-.2-.4-.4-.4h-31.8c-6.1,0-11,4.9-11,10.9h0c0,6,4.9,10.9,11,10.8h31.8c.2,0,.4-.2.4-.4Z"/>
      <path class="cls-1" d="M685.1,1085.4v63.5c0,.4-.2.6-.6.6h-13.3c-.3,0-.5-.2-.5-.5v-63.7c0-.4.1-.7.4-.9l13.8-13.8c.2-.2.4-.3.6-.3,11.7,0,23.3,0,34.9,0,7.2,0,13,2.6,17.4,7.9,4.1,4.9,5,10.2,5,16.8,0,18.3,0,36.2,0,53.7,0,.5-.3.8-.8.8h-12.9c-.6,0-.8-.3-.8-.8,0-15.3.1-32.4,0-51.2,0-3.2-.4-5.5-1.3-7.1-2.3-4.1-6-5.7-10.6-5.7-10.3,0-20.5,0-30.5,0-.5,0-.7.2-.7.7Z"/>
      <path class="cls-1" d="M914.7,1098.6c.9-8.7-3.8-14-12.2-13.9-12.3,0-24.7,0-37.3,0-.6,0-.7-.2-.2-.6l13.5-13.4c.2-.2.6-.4.9-.4,8.1.1,15.9,0,23.5,0,4.6,0,8.2.2,10.7.9,9.5,2.7,15.6,11.4,15.6,21.3,0,19.3,0,38.2,0,56.7,0,.2-.1.3-.3.3-12.9,0-26.3,0-40.3,0-6.9,0-11.6-.4-14.3-1.4-5.5-2-9.8-5.4-12.9-10.1-11-16.6.9-38.7,20.7-38.9,10.3-.1,21-.1,32,0,.4,0,.6-.2.6-.6ZM914.8,1134.8v-20.9c0-.2-.2-.4-.4-.4h-31.8c-6.1,0-11,4.9-11,10.8h0c0,6,4.9,10.9,11,10.9h31.8c.2,0,.4-.2.4-.4h0Z"/>
      <path class="cls-1" d="M958,1085.3v63.7c0,.3-.2.5-.5.5h-13.6c-.2,0-.4-.2-.4-.3v-63.9c0-.3.1-.6.3-.8l13.8-13.8c.2-.2.4-.3.7-.3,11.4,0,23.3,0,35.8,0,9,0,17.2,5.9,20.1,14.5.9,2.6,1.3,5.7,1.3,9.4-.1,18.4-.1,36.6,0,54.7,0,.3-.2.6-.5.6,0,0,0,0,0,0h-13.2c-.4,0-.6-.2-.6-.6,0-15.5,0-33,0-52.3,0-8.5-5.5-12.1-13.4-12-10,.1-19.7.1-29.2,0-.4,0-.6.2-.6.6Z"/>
      <path class="cls-1" d="M1065.2,1109.5l39.5,39.5c.1.1.1.3,0,.5,0,0-.1,0-.2,0h-19.5c0,0-.2,0-.2-.1l-39.9-39.9c-.1-.1-.1-.3,0-.5,0,0,0,0,0,0l38.5-38.6c0,0,.1,0,.2,0h19.5c.2,0,.3.1.3.3,0,0,0,.2,0,.2l-38.2,38.1c-.1.1-.1.3,0,.5,0,0,0,0,0,0Z"/>
    </g>
  </g>
</svg>