<?xml version="1.0" encoding="UTF-8" standalone="no"?>
<!DOCTYPE svg PUBLIC "-//W3C//DTD SVG 1.1//EN" "http://www.w3.org/Graphics/SVG/1.1/DTD/svg11.dtd">
<svg xmlns="http://www.w3.org/2000/svg" version="1.1" viewBox="0.00 0.00 1407.00 1490.00">
<g stroke-width="2.00" fill="none" stroke-linecap="butt">
<path stroke="#41beed" vector-effect="non-scaling-stroke" d="
  M 813.09 391.42
  Q 796.06 401.06 782.89 411.89
  Q 757.45 432.80 735.97 457.87
  A 0.65 0.64 58.4 0 1 734.85 457.60
  Q 728.82 432.91 715.98 412.63
  Q 711.65 405.81 703.02 398.47
  Q 702.77 398.26 702.93 397.51"
/>
<path stroke="#41beed" vector-effect="non-scaling-stroke" d="
  M 906.13 460.55
  Q 897.30 480.16 885.71 496.01
  Q 867.26 521.24 842.66 545.12
  C 841.99 545.77 841.00 546.29 840.35 546.95
  Q 839.42 547.91 840.74 548.13
  Q 865.94 552.28 889.02 561.21
  Q 909.99 569.32 924.99 581.77"
/>
<path stroke="#41beed" vector-effect="non-scaling-stroke" d="
  M 925.02 582.19
  Q 924.41 582.83 922.61 584.09
  Q 904.79 596.60 886.32 605.04
  Q 858.56 617.73 829.73 625.28
  A 0.34 0.34 0.0 0 0 829.58 625.84
  Q 839.12 635.49 846.98 646.38
  Q 853.99 656.10 857.84 663.17
  Q 864.73 675.85 867.40 690.23"
/>
<path stroke="#41beed" vector-effect="non-scaling-stroke" d="
  M 867.28 690.43
  L 854.83 691.61"
/>
<path stroke="#0091d2" vector-effect="non-scaling-stroke" d="
  M 854.83 691.61
  Q 852.90 691.11 851.62 691.87"
/>
<path stroke="#41beed" vector-effect="non-scaling-stroke" d="
  M 851.62 691.87
  Q 847.42 692.16 843.00 692.09
  Q 811.50 691.65 782.51 683.96
  A 0.65 0.65 0.0 0 0 781.70 684.69
  Q 784.92 706.03 782.11 727.37
  Q 781.08 735.17 776.13 746.21"
/>
<path stroke="#41beed" vector-effect="non-scaling-stroke" d="
  M 775.66 746.80
  Q 775.51 746.08 775.26 745.99
  Q 761.26 740.75 748.39 731.86
  Q 733.04 721.26 720.33 708.47"
/>
<path stroke="#0091d2" vector-effect="non-scaling-stroke" d="
  M 720.33 708.47
  Q 729.29 686.25 729.76 661.56
  A 0.53 0.53 0.0 0 1 730.58 661.13
  Q 753.28 676.15 779.72 683.12
  C 780.15 683.23 780.34 683.37 780.67 683.63
  Q 781.32 684.13 781.31 683.31
  Q 781.28 681.94 781.01 680.57
  Q 779.37 672.04 776.67 663.60
  Q 771.56 647.63 762.74 633.95
  A 0.69 0.69 0.0 0 1 763.34 632.89
  Q 774.04 633.10 783.46 632.97
  Q 784.47 632.96 785.49 632.73
  C 787.17 632.35 788.97 632.64 790.79 632.43
  Q 799.95 631.39 808.52 629.97
  Q 817.82 628.43 828.32 625.65
  Q 829.18 625.42 828.54 624.79
  Q 806.45 603.00 779.05 591.60
  A 0.55 0.55 0.0 0 1 779.02 590.60
  C 800.91 579.66 820.67 565.31 838.64 548.74
  Q 839.72 547.74 838.26 547.59
  Q 834.73 547.21 831.23 546.72
  Q 826.00 545.99 820.81 545.65
  Q 809.53 544.91 798.49 545.23
  Q 795.92 545.31 793.49 545.54
  Q 790.71 545.81 788.10 545.73
  C 786.75 545.69 785.84 546.31 784.50 546.25
  Q 783.03 546.18 781.60 546.46
  Q 778.30 547.12 774.87 547.43
  C 773.44 547.56 772.01 548.30 770.40 548.14
  A 0.41 0.41 0.0 0 1 770.10 547.50
  Q 790.76 518.34 802.13 483.91
  Q 802.36 483.19 801.66 483.48
  C 779.81 492.42 758.16 504.57 739.88 519.61
  Q 738.48 520.75 738.77 518.97
  Q 739.68 513.26 739.78 507.55
  C 739.85 503.72 740.48 499.99 740.15 496.15
  Q 739.91 493.27 739.80 490.33
  Q 739.20 474.29 735.19 458.71
  Q 734.93 457.70 734.73 458.72
  C 734.64 459.18 734.37 459.68 734.07 460.04
  C 720.05 476.72 707.37 495.33 698.53 515.24
  A 0.55 0.55 0.0 0 1 697.53 515.25
  Q 686.53 492.00 667.94 476.36"
/>
<path stroke="#41a3d8" vector-effect="non-scaling-stroke" d="
  M 851.62 691.87
  Q 853.32 692.17 854.83 691.61"
/>
<path stroke="#41beed" vector-effect="non-scaling-stroke" d="
  M 906.01 460.40
  Q 895.77 460.30 885.76 460.89
  Q 884.54 460.96 883.27 461.19
  Q 882.02 461.43 880.76 461.55
  Q 870.41 462.60 859.23 465.16
  Q 829.66 471.92 803.16 482.88
  A 0.41 0.41 0.0 0 1 802.62 482.38
  Q 811.55 455.02 814.66 426.89
  Q 815.23 421.73 815.27 415.62
  Q 815.33 406.97 815.12 403.88
  Q 814.86 399.98 813.25 391.40"
/>
<path stroke="#41beed" vector-effect="non-scaling-stroke" d="
  M 702.21 398.28
  Q 693.40 411.31 688.17 421.92
  Q 675.96 446.66 667.94 476.36"
/>
<path stroke="#41a3d8" vector-effect="non-scaling-stroke" d="
  M 667.94 476.36
  L 666.74 475.47"
/>
<path stroke="#41beed" vector-effect="non-scaling-stroke" d="
  M 666.74 475.47
  Q 654.77 465.55 640.42 459.35
  Q 630.15 454.91 618.71 454.64"
/>
<path stroke="#41a3d8" vector-effect="non-scaling-stroke" d="
  M 720.33 708.47
  Q 720.21 708.65 720.08 708.82"
/>
<path stroke="#0091d2" vector-effect="non-scaling-stroke" d="
  M 720.08 708.82
  Q 719.91 707.99 718.86 706.92
  Q 702.55 690.24 692.76 669.39
  A 0.57 0.57 0.0 0 0 691.75 669.35
  Q 680.73 688.47 664.09 702.15"
/>
<path stroke="#41a3d8" vector-effect="non-scaling-stroke" d="
  M 664.09 702.15
  Q 663.93 702.48 663.50 702.17"
/>
<path stroke="#0091d2" vector-effect="non-scaling-stroke" d="
  M 663.50 702.17
  Q 664.11 701.32 663.56 700.04
  Q 662.96 698.65 662.86 698.14
  Q 661.46 691.38 660.34 685.18
  C 660.15 684.15 660.51 683.38 659.94 682.37
  Q 659.72 681.98 659.77 681.52
  Q 660.02 679.48 659.62 677.45
  Q 659.20 675.35 659.18 672.91
  Q 659.12 666.08 659.27 658.66
  A 0.41 0.41 0.0 0 0 658.64 658.31
  C 647.84 665.41 635.74 670.26 622.91 672.84
  Q 622.20 672.98 622.34 672.28
  Q 626.27 652.14 636.92 634.00
  Q 637.16 633.59 636.68 633.61
  C 632.26 633.79 627.18 634.16 622.78 633.41
  Q 620.55 633.03 618.37 632.86
  C 613.60 632.48 608.61 631.14 603.86 630.00
  Q 603.76 629.97 601.49 629.06
  Q 599.86 628.41 598.44 629.49"
/>
<path stroke="#41a3d8" vector-effect="non-scaling-stroke" d="
  M 598.44 629.49
  L 599.10 628.32"
/>
<path stroke="#0091d2" vector-effect="non-scaling-stroke" d="
  M 599.10 628.32
  Q 611.29 611.89 628.50 600.66
  Q 629.05 600.30 628.47 600.00
  Q 611.06 590.89 597.89 575.54
  Q 597.56 575.16 598.01 574.93
  Q 615.54 566.06 634.50 564.90
  Q 635.49 564.83 636.35 564.37
  A 0.58 0.58 0.0 0 0 636.56 563.55
  Q 629.58 552.30 625.20 539.16
  Q 623.14 532.98 621.24 525.89
  Q 621.14 525.53 620.80 523.27
  Q 620.60 521.92 619.96 520.72"
/>
<path stroke="#41beed" vector-effect="non-scaling-stroke" d="
  M 720.08 708.82
  Q 714.37 722.92 705.55 735.31
  Q 699.28 744.13 690.60 750.68
  A 1.87 1.87 0.0 0 1 688.06 750.40
  Q 680.45 741.52 675.11 730.87
  Q 668.24 717.14 664.09 702.15"
/>
<path stroke="#41beed" vector-effect="non-scaling-stroke" d="
  M 663.50 702.17
  Q 662.70 703.18 662.27 703.52
  Q 649.69 713.55 635.51 719.14
  Q 630.04 721.29 623.34 722.04
  A 1.12 1.10 -13.2 0 1 622.18 721.33
  Q 621.23 718.75 620.93 716.46
  C 620.51 713.11 619.72 709.81 619.70 706.44
  C 619.66 700.47 619.37 694.30 620.09 688.42
  Q 620.47 685.26 620.73 682.04
  C 620.95 679.26 621.74 676.66 622.04 673.90
  A 0.77 0.76 87.7 0 0 621.15 673.07
  Q 607.39 675.52 593.16 674.22
  C 591.41 674.06 589.80 673.64 588.08 673.33
  C 585.15 672.82 582.39 671.73 579.51 670.85"
/>
<path stroke="#0091d2" vector-effect="non-scaling-stroke" d="
  M 666.74 475.47
  Q 666.92 476.05 667.48 476.65
  Q 667.82 477.01 667.69 477.48
  Q 664.38 489.78 662.41 504.99
  Q 661.78 509.84 661.55 513.31
  Q 661.27 517.50 661.06 521.66
  Q 660.79 526.68 661.15 532.70
  A 0.55 0.55 0.0 0 1 660.32 533.20
  Q 642.80 522.79 621.74 520.87
  Q 620.94 520.80 619.96 520.72"
/>
<path stroke="#41beed" vector-effect="non-scaling-stroke" d="
  M 619.96 520.72
  Q 620.08 520.69 620.18 520.57
  Q 620.25 520.48 620.23 520.37
  Q 618.69 513.40 618.03 508.23
  C 617.52 504.28 616.81 500.25 616.66 496.27
  Q 616.53 492.81 616.34 489.53
  C 615.68 478.48 616.18 467.08 618.22 456.12
  C 618.31 455.64 618.16 455.43 618.04 454.98"
/>
<path stroke="#41beed" vector-effect="non-scaling-stroke" d="
  M 599.10 628.32
  Q 585.68 623.62 574.72 616.24
  Q 567.77 611.55 562.45 605.04
  Q 562.22 604.75 561.74 604.98"
/>
<path stroke="#41beed" vector-effect="non-scaling-stroke" d="
  M 561.70 604.09
  Q 562.31 603.95 562.47 603.71
  C 570.85 591.38 583.68 582.33 596.88 575.49
  A 0.65 0.65 0.0 0 0 597.08 574.49
  Q 585.52 560.74 577.91 544.33
  Q 575.39 538.90 573.01 529.76"
/>
<path stroke="#41beed" vector-effect="non-scaling-stroke" d="
  M 598.44 629.49
  C 589.75 641.07 582.16 655.06 579.67 669.27
  Q 579.59 669.70 579.36 669.88
  Q 579.12 670.08 578.72 670.24"
/>
<path stroke="#41beed" vector-effect="non-scaling-stroke" d="
  M 619.96 520.72
  Q 609.70 519.83 597.25 521.49
  Q 584.58 523.17 574.50 528.79
  Q 574.06 529.03 573.57 529.03
  L 573.02 529.04"
/>
</g>
<path fill="#82d0f3" d="
  M 813.09 391.42
  Q 796.06 401.06 782.89 411.89
  Q 757.45 432.80 735.97 457.87
  A 0.65 0.64 58.4 0 1 734.85 457.60
  Q 728.82 432.91 715.98 412.63
  Q 711.65 405.81 703.02 398.47
  Q 702.77 398.26 702.93 397.51
  C 723.69 367.96 749.24 341.66 776.26 317.67
  A 0.50 0.49 49.3 0 1 776.97 317.73
  C 792.04 335.89 803.82 356.32 810.33 378.99
  Q 812.12 385.21 813.09 391.42
  Z"
/>
<path fill="#82d0f3" d="
  M 906.01 460.40
  Q 895.77 460.30 885.76 460.89
  Q 884.54 460.96 883.27 461.19
  Q 882.02 461.43 880.76 461.55
  Q 870.41 462.60 859.23 465.16
  Q 829.66 471.92 803.16 482.88
  A 0.41 0.41 0.0 0 1 802.62 482.38
  Q 811.55 455.02 814.66 426.89
  Q 815.23 421.73 815.27 415.62
  Q 815.33 406.97 815.12 403.88
  Q 814.86 399.98 813.25 391.40
  Q 835.37 378.93 859.20 369.69
  Q 894.63 355.94 930.92 347.38
  Q 931.51 347.24 931.48 347.84
  C 929.20 386.27 922.12 425.18 906.01 460.40
  Z"
/>
<path fill="#82d0f3" d="
  M 702.21 398.28
  Q 693.40 411.31 688.17 421.92
  Q 675.96 446.66 667.94 476.36
  L 666.74 475.47
  Q 654.77 465.55 640.42 459.35
  Q 630.15 454.91 618.71 454.64
  Q 620.69 443.95 622.95 435.98
  Q 631.14 407.08 645.21 376.43
  Q 645.44 375.95 645.97 376.01
  C 665.72 378.48 685.27 384.88 701.11 397.14
  Q 701.73 397.63 702.21 398.28
  Z"
/>
<path fill="#00ace7" d="
  M 813.09 391.42
  Q 813.17 391.41 813.25 391.40
  Q 814.86 399.98 815.12 403.88
  Q 815.33 406.97 815.27 415.62
  Q 815.23 421.73 814.66 426.89
  Q 811.55 455.02 802.62 482.38
  A 0.41 0.41 0.0 0 0 803.16 482.88
  Q 829.66 471.92 859.23 465.16
  Q 870.41 462.60 880.76 461.55
  Q 882.02 461.43 883.27 461.19
  Q 884.54 460.96 885.76 460.89
  Q 895.77 460.30 906.01 460.40
  Q 906.07 460.47 906.13 460.55
  Q 897.30 480.16 885.71 496.01
  Q 867.26 521.24 842.66 545.12
  C 841.99 545.77 841.00 546.29 840.35 546.95
  Q 839.42 547.91 840.74 548.13
  Q 865.94 552.28 889.02 561.21
  Q 909.99 569.32 924.99 581.77
  Q 924.91 581.98 925.02 582.19
  Q 924.41 582.83 922.61 584.09
  Q 904.79 596.60 886.32 605.04
  Q 858.56 617.73 829.73 625.28
  A 0.34 0.34 0.0 0 0 829.58 625.84
  Q 839.12 635.49 846.98 646.38
  Q 853.99 656.10 857.84 663.17
  Q 864.73 675.85 867.40 690.23
  Q 867.60 690.27 867.28 690.43
  L 854.83 691.61
  Q 852.90 691.11 851.62 691.87
  Q 847.42 692.16 843.00 692.09
  Q 811.50 691.65 782.51 683.96
  A 0.65 0.65 0.0 0 0 781.70 684.69
  Q 784.92 706.03 782.11 727.37
  Q 781.08 735.17 776.13 746.21
  Q 775.55 746.50 775.66 746.80
  Q 775.51 746.08 775.26 745.99
  Q 761.26 740.75 748.39 731.86
  Q 733.04 721.26 720.33 708.47
  Q 729.29 686.25 729.76 661.56
  A 0.53 0.53 0.0 0 1 730.58 661.13
  Q 753.28 676.15 779.72 683.12
  C 780.15 683.23 780.34 683.37 780.67 683.63
  Q 781.32 684.13 781.31 683.31
  Q 781.28 681.94 781.01 680.57
  Q 779.37 672.04 776.67 663.60
  Q 771.56 647.63 762.74 633.95
  A 0.69 0.69 0.0 0 1 763.34 632.89
  Q 774.04 633.10 783.46 632.97
  Q 784.47 632.96 785.49 632.73
  C 787.17 632.35 788.97 632.64 790.79 632.43
  Q 799.95 631.39 808.52 629.97
  Q 817.82 628.43 828.32 625.65
  Q 829.18 625.42 828.54 624.79
  Q 806.45 603.00 779.05 591.60
  A 0.55 0.55 0.0 0 1 779.02 590.60
  C 800.91 579.66 820.67 565.31 838.64 548.74
  Q 839.72 547.74 838.26 547.59
  Q 834.73 547.21 831.23 546.72
  Q 826.00 545.99 820.81 545.65
  Q 809.53 544.91 798.49 545.23
  Q 795.92 545.31 793.49 545.54
  Q 790.71 545.81 788.10 545.73
  C 786.75 545.69 785.84 546.31 784.50 546.25
  Q 783.03 546.18 781.60 546.46
  Q 778.30 547.12 774.87 547.43
  C 773.44 547.56 772.01 548.30 770.40 548.14
  A 0.41 0.41 0.0 0 1 770.10 547.50
  Q 790.76 518.34 802.13 483.91
  Q 802.36 483.19 801.66 483.48
  C 779.81 492.42 758.16 504.57 739.88 519.61
  Q 738.48 520.75 738.77 518.97
  Q 739.68 513.26 739.78 507.55
  C 739.85 503.72 740.48 499.99 740.15 496.15
  Q 739.91 493.27 739.80 490.33
  Q 739.20 474.29 735.19 458.71
  Q 734.93 457.70 734.73 458.72
  C 734.64 459.18 734.37 459.68 734.07 460.04
  C 720.05 476.72 707.37 495.33 698.53 515.24
  A 0.55 0.55 0.0 0 1 697.53 515.25
  Q 686.53 492.00 667.94 476.36
  Q 675.96 446.66 688.17 421.92
  Q 693.40 411.31 702.21 398.28
  Q 702.75 398.19 702.93 397.51
  Q 702.77 398.26 703.02 398.47
  Q 711.65 405.81 715.98 412.63
  Q 728.82 432.91 734.85 457.60
  A 0.65 0.64 58.4 0 0 735.97 457.87
  Q 757.45 432.80 782.89 411.89
  Q 796.06 401.06 813.09 391.42
  Z"
/>
<path fill="#00ace7" d="
  M 666.74 475.47
  Q 666.92 476.05 667.48 476.65
  Q 667.82 477.01 667.69 477.48
  Q 664.38 489.78 662.41 504.99
  Q 661.78 509.84 661.55 513.31
  Q 661.27 517.50 661.06 521.66
  Q 660.79 526.68 661.15 532.70
  A 0.55 0.55 0.0 0 1 660.32 533.20
  Q 642.80 522.79 621.74 520.87
  Q 620.94 520.80 619.96 520.72
  Q 620.08 520.69 620.18 520.57
  Q 620.25 520.48 620.23 520.37
  Q 618.69 513.40 618.03 508.23
  C 617.52 504.28 616.81 500.25 616.66 496.27
  Q 616.53 492.81 616.34 489.53
  C 615.68 478.48 616.18 467.08 618.22 456.12
  C 618.31 455.64 618.16 455.43 618.04 454.98
  Q 618.56 454.91 618.71 454.64
  Q 630.15 454.91 640.42 459.35
  Q 654.77 465.55 666.74 475.47
  Z"
/>
<path fill="#82d0f3" d="
  M 618.04 454.98
  C 618.16 455.43 618.31 455.64 618.22 456.12
  C 616.18 467.08 615.68 478.48 616.34 489.53
  Q 616.53 492.81 616.66 496.27
  C 616.81 500.25 617.52 504.28 618.03 508.23
  Q 618.69 513.40 620.23 520.37
  Q 620.25 520.48 620.18 520.57
  Q 620.08 520.69 619.96 520.72
  Q 609.70 519.83 597.25 521.49
  Q 584.58 523.17 574.50 528.79
  Q 574.06 529.03 573.57 529.03
  L 573.02 529.04
  C 568.35 509.26 567.55 489.37 568.06 468.53
  A 0.86 0.86 0.0 0 1 568.55 467.77
  C 583.32 460.55 599.13 455.53 615.74 454.82
  Q 617.28 454.76 618.04 454.98
  Z"
/>
<path fill="#0075bc" d="
  M 720.33 708.47
  Q 720.21 708.65 720.08 708.82
  Q 719.91 707.99 718.86 706.92
  Q 702.55 690.24 692.76 669.39
  A 0.57 0.57 0.0 0 0 691.75 669.35
  Q 680.73 688.47 664.09 702.15
  Q 663.93 702.48 663.50 702.17
  Q 664.11 701.32 663.56 700.04
  Q 662.96 698.65 662.86 698.14
  Q 661.46 691.38 660.34 685.18
  C 660.15 684.15 660.51 683.38 659.94 682.37
  Q 659.72 681.98 659.77 681.52
  Q 660.02 679.48 659.62 677.45
  Q 659.20 675.35 659.18 672.91
  Q 659.12 666.08 659.27 658.66
  A 0.41 0.41 0.0 0 0 658.64 658.31
  C 647.84 665.41 635.74 670.26 622.91 672.84
  Q 622.20 672.98 622.34 672.28
  Q 626.27 652.14 636.92 634.00
  Q 637.16 633.59 636.68 633.61
  C 632.26 633.79 627.18 634.16 622.78 633.41
  Q 620.55 633.03 618.37 632.86
  C 613.60 632.48 608.61 631.14 603.86 630.00
  Q 603.76 629.97 601.49 629.06
  Q 599.86 628.41 598.44 629.49
  L 599.10 628.32
  Q 611.29 611.89 628.50 600.66
  Q 629.05 600.30 628.47 600.00
  Q 611.06 590.89 597.89 575.54
  Q 597.56 575.16 598.01 574.93
  Q 615.54 566.06 634.50 564.90
  Q 635.49 564.83 636.35 564.37
  A 0.58 0.58 0.0 0 0 636.56 563.55
  Q 629.58 552.30 625.20 539.16
  Q 623.14 532.98 621.24 525.89
  Q 621.14 525.53 620.80 523.27
  Q 620.60 521.92 619.96 520.72
  Q 620.94 520.80 621.74 520.87
  Q 642.80 522.79 660.32 533.20
  A 0.55 0.55 0.0 0 0 661.15 532.70
  Q 660.79 526.68 661.06 521.66
  Q 661.27 517.50 661.55 513.31
  Q 661.78 509.84 662.41 504.99
  Q 664.38 489.78 667.69 477.48
  Q 667.82 477.01 667.48 476.65
  Q 666.92 476.05 666.74 475.47
  L 667.94 476.36
  Q 686.53 492.00 697.53 515.25
  A 0.55 0.55 0.0 0 0 698.53 515.24
  C 707.37 495.33 720.05 476.72 734.07 460.04
  C 734.37 459.68 734.64 459.18 734.73 458.72
  Q 734.93 457.70 735.19 458.71
  Q 739.20 474.29 739.80 490.33
  Q 739.91 493.27 740.15 496.15
  C 740.48 499.99 739.85 503.72 739.78 507.55
  Q 739.68 513.26 738.77 518.97
  Q 738.48 520.75 739.88 519.61
  C 758.16 504.57 779.81 492.42 801.66 483.48
  Q 802.36 483.19 802.13 483.91
  Q 790.76 518.34 770.10 547.50
  A 0.41 0.41 0.0 0 0 770.40 548.14
  C 772.01 548.30 773.44 547.56 774.87 547.43
  Q 778.30 547.12 781.60 546.46
  Q 783.03 546.18 784.50 546.25
  C 785.84 546.31 786.75 545.69 788.10 545.73
  Q 790.71 545.81 793.49 545.54
  Q 795.92 545.31 798.49 545.23
  Q 809.53 544.91 820.81 545.65
  Q 826.00 545.99 831.23 546.72
  Q 834.73 547.21 838.26 547.59
  Q 839.72 547.74 838.64 548.74
  C 820.67 565.31 800.91 579.66 779.02 590.60
  A 0.55 0.55 0.0 0 0 779.05 591.60
  Q 806.45 603.00 828.54 624.79
  Q 829.18 625.42 828.32 625.65
  Q 817.82 628.43 808.52 629.97
  Q 799.95 631.39 790.79 632.43
  C 788.97 632.64 787.17 632.35 785.49 632.73
  Q 784.47 632.96 783.46 632.97
  Q 774.04 633.10 763.34 632.89
  A 0.69 0.69 0.0 0 0 762.74 633.95
  Q 771.56 647.63 776.67 663.60
  Q 779.37 672.04 781.01 680.57
  Q 781.28 681.94 781.31 683.31
  Q 781.32 684.13 780.67 683.63
  C 780.34 683.37 780.15 683.23 779.72 683.12
  Q 753.28 676.15 730.58 661.13
  A 0.53 0.53 0.0 0 0 729.76 661.56
  Q 729.29 686.25 720.33 708.47
  Z
  M 724.57 564.81
  Q 735.23 544.37 738.27 521.47
  Q 738.33 521.07 738.02 521.33
  C 725.97 531.72 715.41 542.82 706.91 556.26
  Q 706.62 556.73 706.61 556.17
  Q 706.31 536.20 698.30 517.45
  Q 698.03 516.81 697.75 517.45
  Q 688.46 538.59 686.76 558.30
  Q 686.68 559.26 686.17 558.45
  Q 676.94 543.84 661.87 534.40
  A 0.20 0.20 0.0 0 0 661.56 534.58
  Q 662.34 553.58 669.95 570.74
  Q 670.12 571.13 669.73 570.96
  Q 654.88 564.42 638.10 564.81
  Q 637.59 564.82 637.86 565.25
  Q 646.86 579.42 660.46 588.53
  Q 661.06 588.94 660.34 589.03
  C 649.30 590.48 639.61 594.61 629.90 600.08
  Q 629.64 600.22 629.91 600.35
  Q 644.21 607.41 660.09 607.70
  Q 660.75 607.71 660.22 608.11
  Q 647.03 618.21 638.08 632.61
  Q 637.74 633.14 638.37 633.08
  C 649.22 631.95 659.21 628.90 668.39 623.87
  Q 669.23 623.41 668.81 624.27
  Q 661.44 639.28 659.83 656.75
  Q 659.78 657.36 660.29 657.01
  Q 674.80 647.02 683.97 633.14
  Q 684.34 632.58 684.36 633.25
  Q 685.00 650.95 692.19 667.43
  A 0.16 0.16 0.0 0 0 692.47 667.44
  Q 701.18 651.32 703.09 633.30
  Q 703.17 632.50 703.59 633.19
  C 709.75 643.41 718.83 652.32 728.85 659.57
  Q 729.37 659.95 729.36 659.31
  Q 729.05 640.03 721.22 622.98
  Q 721.02 622.53 721.46 622.74
  Q 739.59 631.31 761.14 632.59
  Q 761.55 632.62 761.33 632.28
  Q 750.11 615.36 733.30 604.88
  Q 732.66 604.48 733.41 604.36
  C 736.03 603.93 738.79 603.78 741.37 603.28
  Q 759.95 599.66 776.97 591.38
  Q 777.43 591.16 776.95 590.97
  Q 756.44 582.98 734.64 583.15
  Q 734.05 583.16 734.54 582.82
  Q 753.56 569.56 768.47 549.26
  Q 768.83 548.76 768.23 548.88
  Q 744.61 553.53 724.84 565.07
  Q 724.26 565.40 724.57 564.81
  Z"
/>
<path fill="#82d0f3" d="
  M 924.99 581.77
  Q 909.99 569.32 889.02 561.21
  Q 865.94 552.28 840.74 548.13
  Q 839.42 547.91 840.35 546.95
  C 841.00 546.29 841.99 545.77 842.66 545.12
  Q 867.26 521.24 885.71 496.01
  Q 897.30 480.16 906.13 460.55
  Q 933.09 461.33 959.50 467.86
  Q 989.68 475.32 1018.00 487.87
  A 0.23 0.23 0.0 0 1 1018.09 488.22
  Q 989.31 525.78 956.56 556.33
  Q 943.69 568.33 925.96 581.57
  Q 925.76 581.73 925.50 581.75
  Q 925.22 581.78 924.99 581.77
  Z"
/>
<path fill="#00ace7" d="
  M 619.96 520.72
  Q 620.60 521.92 620.80 523.27
  Q 621.14 525.53 621.24 525.89
  Q 623.14 532.98 625.20 539.16
  Q 629.58 552.30 636.56 563.55
  A 0.58 0.58 0.0 0 1 636.35 564.37
  Q 635.49 564.83 634.50 564.90
  Q 615.54 566.06 598.01 574.93
  Q 597.56 575.16 597.89 575.54
  Q 611.06 590.89 628.47 600.00
  Q 629.05 600.30 628.50 600.66
  Q 611.29 611.89 599.10 628.32
  Q 585.68 623.62 574.72 616.24
  Q 567.77 611.55 562.45 605.04
  Q 562.22 604.75 561.74 604.98
  Q 562.19 604.58 561.70 604.09
  Q 562.31 603.95 562.47 603.71
  C 570.85 591.38 583.68 582.33 596.88 575.49
  A 0.65 0.65 0.0 0 0 597.08 574.49
  Q 585.52 560.74 577.91 544.33
  Q 575.39 538.90 573.01 529.76
  Q 573.25 529.38 573.02 529.04
  L 573.57 529.03
  Q 574.06 529.03 574.50 528.79
  Q 584.58 523.17 597.25 521.49
  Q 609.70 519.83 619.96 520.72
  Z"
/>
<path fill="#82d0f3" d="
  M 573.01 529.76
  Q 575.39 538.90 577.91 544.33
  Q 585.52 560.74 597.08 574.49
  A 0.65 0.65 0.0 0 1 596.88 575.49
  C 583.68 582.33 570.85 591.38 562.47 603.71
  Q 562.31 603.95 561.70 604.09
  C 551.72 592.00 543.90 577.05 538.21 562.54
  Q 538.02 562.06 538.34 561.66
  C 548.31 548.97 559.67 537.74 573.01 529.76
  Z"
/>
<path fill="#82d0f3" d="
  M 925.02 582.19
  Q 925.38 582.34 925.71 582.62
  C 949.05 602.31 965.80 629.01 976.82 657.18
  A 0.36 0.35 68.4 0 1 976.63 657.63
  Q 952.92 667.65 930.54 675.19
  Q 900.42 685.34 868.99 690.12
  Q 868.27 690.23 867.40 690.23
  Q 864.73 675.85 857.84 663.17
  Q 853.99 656.10 846.98 646.38
  Q 839.12 635.49 829.58 625.84
  A 0.34 0.34 0.0 0 1 829.73 625.28
  Q 858.56 617.73 886.32 605.04
  Q 904.79 596.60 922.61 584.09
  Q 924.41 582.83 925.02 582.19
  Z"
/>
<path fill="#82d0f3" d="
  M 561.74 604.98
  Q 562.22 604.75 562.45 605.04
  Q 567.77 611.55 574.72 616.24
  Q 585.68 623.62 599.10 628.32
  L 598.44 629.49
  C 589.75 641.07 582.16 655.06 579.67 669.27
  Q 579.59 669.70 579.36 669.88
  Q 579.12 670.08 578.72 670.24
  C 565.99 665.04 554.21 656.53 544.29 647.18
  Q 543.96 646.87 544.08 646.42
  C 547.88 631.93 553.50 617.42 561.74 604.98
  Z"
/>
<path fill="#00ace7" d="
  M 663.50 702.17
  Q 662.70 703.18 662.27 703.52
  Q 649.69 713.55 635.51 719.14
  Q 630.04 721.29 623.34 722.04
  A 1.12 1.10 -13.2 0 1 622.18 721.33
  Q 621.23 718.75 620.93 716.46
  C 620.51 713.11 619.72 709.81 619.70 706.44
  C 619.66 700.47 619.37 694.30 620.09 688.42
  Q 620.47 685.26 620.73 682.04
  C 620.95 679.26 621.74 676.66 622.04 673.90
  A 0.77 0.76 87.7 0 0 621.15 673.07
  Q 607.39 675.52 593.16 674.22
  C 591.41 674.06 589.80 673.64 588.08 673.33
  C 585.15 672.82 582.39 671.73 579.51 670.85
  Q 579.46 670.09 578.72 670.24
  Q 579.12 670.08 579.36 669.88
  Q 579.59 669.70 579.67 669.27
  C 582.16 655.06 589.75 641.07 598.44 629.49
  Q 599.86 628.41 601.49 629.06
  Q 603.76 629.97 603.86 630.00
  C 608.61 631.14 613.60 632.48 618.37 632.86
  Q 620.55 633.03 622.78 633.41
  C 627.18 634.16 632.26 633.79 636.68 633.61
  Q 637.16 633.59 636.92 634.00
  Q 626.27 652.14 622.34 672.28
  Q 622.20 672.98 622.91 672.84
  C 635.74 670.26 647.84 665.41 658.64 658.31
  A 0.41 0.41 0.0 0 1 659.27 658.66
  Q 659.12 666.08 659.18 672.91
  Q 659.20 675.35 659.62 677.45
  Q 660.02 679.48 659.77 681.52
  Q 659.72 681.98 659.94 682.37
  C 660.51 683.38 660.15 684.15 660.34 685.18
  Q 661.46 691.38 662.86 698.14
  Q 662.96 698.65 663.56 700.04
  Q 664.11 701.32 663.50 702.17
  Z"
/>
<path fill="#00ace7" d="
  M 720.08 708.82
  Q 714.37 722.92 705.55 735.31
  Q 699.28 744.13 690.60 750.68
  A 1.87 1.87 0.0 0 1 688.06 750.40
  Q 680.45 741.52 675.11 730.87
  Q 668.24 717.14 664.09 702.15
  Q 680.73 688.47 691.75 669.35
  A 0.57 0.57 0.0 0 1 692.76 669.39
  Q 702.55 690.24 718.86 706.92
  Q 719.91 707.99 720.08 708.82
  Z"
/>
<path fill="#82d0f3" d="
  M 579.51 670.85
  C 582.39 671.73 585.15 672.82 588.08 673.33
  C 589.80 673.64 591.41 674.06 593.16 674.22
  Q 607.39 675.52 621.15 673.07
  A 0.77 0.76 87.7 0 1 622.04 673.90
  C 621.74 676.66 620.95 679.26 620.73 682.04
  Q 620.47 685.26 620.09 688.42
  C 619.37 694.30 619.66 700.47 619.70 706.44
  C 619.72 709.81 620.51 713.11 620.93 716.46
  Q 621.23 718.75 622.18 721.33
  A 1.12 1.10 -13.2 0 0 623.34 722.04
  Q 630.04 721.29 635.51 719.14
  Q 649.69 713.55 662.27 703.52
  Q 662.70 703.18 663.50 702.17
  Q 663.93 702.48 664.09 702.15
  Q 668.24 717.14 675.11 730.87
  Q 680.45 741.52 688.06 750.40
  A 1.87 1.87 0.0 0 0 690.60 750.68
  Q 699.28 744.13 705.55 735.31
  Q 714.37 722.92 720.08 708.82
  Q 720.21 708.65 720.33 708.47
  Q 733.04 721.26 748.39 731.86
  Q 761.26 740.75 775.26 745.99
  Q 775.51 746.08 775.66 746.80
  C 767.45 764.07 754.16 779.31 739.54 791.35
  Q 739.13 791.68 738.68 791.41
  C 720.71 780.36 703.30 767.58 689.62 751.89
  Q 689.29 751.50 688.86 751.79
  Q 668.83 765.13 644.49 769.53
  Q 644.21 769.58 644.05 769.33
  C 634.96 754.39 627.33 739.51 622.49 722.72
  Q 622.35 722.21 621.83 722.26
  Q 602.23 724.21 580.26 717.86
  Q 579.77 717.72 579.69 717.22
  C 577.40 702.21 576.83 685.90 579.51 670.85
  Z"
/>
<path fill="#82d0f3" d="
  M 851.62 691.87
  Q 853.32 692.17 854.83 691.61
  L 867.28 690.43
  C 871.26 714.54 867.60 739.18 860.05 762.23
  Q 859.90 762.70 859.41 762.67
  C 831.74 760.64 802.51 755.91 776.13 746.21
  Q 781.08 735.17 782.11 727.37
  Q 784.92 706.03 781.70 684.69
  A 0.65 0.65 0.0 0 1 782.51 683.96
  Q 811.50 691.65 843.00 692.09
  Q 847.42 692.16 851.62 691.87
  Z"
/>
<path fill="#0075bc" d="
  M 854.83 691.61
  Q 853.32 692.17 851.62 691.87
  Q 852.90 691.11 854.83 691.61
  Z"
/>
<path fill="#145591" d="
  M 484.62 951.23
  C 478.63 958.87 471.89 964.86 462.36 967.85
  Q 456.41 969.71 446.57 969.68
  Q 434.69 969.64 427.24 969.41
  C 410.34 968.87 395.75 955.63 391.68 939.15
  Q 390.50 934.38 390.55 922.44
  Q 390.72 881.95 390.57 845.00
  A 0.69 0.68 -13.4 0 1 390.95 844.39
  L 416.48 831.61
  Q 416.95 831.38 416.95 831.90
  Q 416.88 876.00 416.97 920.21
  Q 416.98 927.21 418.21 930.42
  C 421.56 939.15 429.09 943.34 438.36 943.35
  Q 444.87 943.36 450.15 943.19
  Q 457.04 942.96 462.03 937.53
  Q 474.52 923.96 488.93 908.22
  C 496.09 900.39 499.64 895.90 507.47 892.81
  C 518.83 888.32 529.39 892.94 537.81 901.25
  Q 544.64 907.99 550.96 914.12
  C 566.87 929.57 565.03 955.80 547.38 968.94
  C 535.91 977.48 520.98 978.53 508.43 971.85
  Q 503.18 969.05 496.56 962.19
  Q 490.80 956.22 485.57 951.17
  A 0.65 0.64 41.3 0 0 484.62 951.23
  Z
  M 503.57 931.96
  C 508.71 936.90 513.73 942.28 518.83 947.08
  C 524.39 952.30 533.47 949.80 535.20 942.34
  Q 536.39 937.19 533.23 933.76
  Q 528.19 928.29 523.34 923.92
  C 518.39 919.48 513.06 920.27 508.87 925.18
  Q 506.40 928.07 503.56 930.90
  A 0.74 0.74 0.0 0 0 503.57 931.96
  Z"
/>
<path fill="#145591" d="
  M 766.08 969.04
  A 0.58 0.58 0.0 0 1 765.50 969.62
  Q 690.81 969.65 614.78 969.61
  C 596.63 969.61 581.49 957.88 576.48 940.63
  Q 574.94 935.34 574.98 925.01
  Q 575.13 884.48 575.03 845.18
  Q 575.03 844.56 575.59 844.28
  L 601.03 831.55
  A 0.27 0.26 76.9 0 1 601.41 831.79
  Q 601.44 875.56 601.36 922.25
  C 601.33 934.24 609.47 943.33 621.75 943.32
  Q 694.69 943.26 765.66 943.29
  A 0.40 0.40 0.0 0 1 766.06 943.69
  L 766.08 969.04
  Z"
/>
<path fill="#145591" d="
  M 964.28 953.95
  Q 946.71 969.61 923.77 969.62
  Q 857.08 969.64 793.26 969.61
  A 0.83 0.82 -90.0 0 1 792.44 968.78
  L 792.51 944.00
  Q 792.51 943.50 793.00 943.49
  Q 796.45 943.42 799.76 943.41
  Q 858.73 943.12 920.83 943.37
  Q 928.11 943.39 933.05 942.14
  C 950.42 937.73 957.05 920.38 957.05 903.94
  Q 957.04 871.55 957.04 845.28
  Q 957.04 844.54 957.71 844.21
  L 982.90 831.61
  Q 983.37 831.37 983.37 831.90
  Q 983.47 878.94 983.30 919.53
  Q 983.27 926.93 984.53 930.19
  C 987.96 939.09 995.35 943.36 1004.60 943.33
  Q 1039.84 943.23 1074.92 943.30
  Q 1075.58 943.30 1075.58 943.96
  L 1075.58 969.00
  Q 1075.58 969.59 1074.99 969.59
  Q 1035.78 969.64 997.50 969.65
  Q 977.63 969.65 965.05 954.01
  Q 964.70 953.57 964.28 953.95
  Z"
/>
<path fill="#145591" d="
  M 1089.27 844.29
  L 1114.78 831.54
  A 0.24 0.23 76.3 0 1 1115.12 831.75
  Q 1115.14 877.78 1115.12 923.41
  C 1115.12 934.45 1123.90 943.27 1134.91 943.27
  Q 1164.21 943.28 1193.55 943.28
  Q 1194.20 943.28 1194.20 943.92
  L 1194.21 969.02
  Q 1194.21 969.64 1193.59 969.64
  Q 1162.51 969.58 1130.27 969.66
  Q 1108.61 969.71 1096.45 953.50
  C 1089.98 944.85 1088.68 936.11 1088.72 924.58
  Q 1088.88 884.82 1088.75 845.14
  A 0.93 0.93 0.0 0 1 1089.27 844.29
  Z"
/>
<path fill="#145591" d="
  M 312.32 943.28
  C 326.48 943.30 338.95 933.25 343.07 920.12
  Q 344.67 915.02 344.60 906.62
  Q 344.43 885.15 344.56 863.45
  Q 344.56 862.95 345.01 862.72
  L 370.36 849.85
  Q 370.87 849.59 370.87 850.16
  Q 370.86 880.07 370.89 910.25
  Q 370.91 933.57 354.34 951.32
  Q 337.21 969.65 309.42 969.65
  Q 280.54 969.64 252.29 969.61
  C 234.36 969.59 218.96 957.63 214.23 940.58
  Q 212.66 934.92 212.72 927.11
  Q 212.89 901.50 212.75 878.04
  Q 212.74 877.47 213.25 877.22
  L 238.58 864.56
  A 0.41 0.41 0.0 0 1 239.17 864.92
  Q 239.20 893.62 239.13 922.78
  C 239.11 931.50 243.70 938.78 251.86 942.01
  Q 255.34 943.38 261.04 943.35
  Q 287.01 943.23 312.32 943.28
  Z"
/>
<path fill="#145591" d="
  M 872.60 875.41
  C 874.36 875.65 876.29 875.30 877.99 875.61
  Q 889.57 877.69 890.19 889.01
  C 890.56 895.70 886.56 900.36 880.59 903.23
  Q 870.44 908.12 861.80 912.58
  A 0.37 0.37 0.0 0 1 861.26 912.25
  L 861.25 898.04
  Q 861.24 897.51 861.72 897.27
  L 875.24 890.53
  Q 877.76 889.27 874.94 889.36
  C 865.90 889.62 858.69 885.36 858.56 875.39
  C 858.47 867.76 863.20 863.83 869.95 860.70
  Q 878.33 856.80 886.79 852.32
  Q 887.48 851.95 887.48 852.74
  L 887.50 866.70
  Q 887.50 867.34 886.93 867.63
  L 872.50 874.81
  Q 871.57 875.28 872.60 875.41
  Z"
/>
<rect fill="#145591" x="-14.73" y="-14.74" transform="translate(291.83,884.01) rotate(44.9)" width="29.46" height="29.48" rx="2.74"/>
<rect fill="#145591" x="-14.73" y="-14.73" transform="translate(1036.12,884.01) rotate(-44.9)" width="29.46" height="29.46" rx="2.71"/>
<rect fill="#145591" x="-14.74" y="-14.74" transform="translate(1148.05,1009.22) rotate(-44.9)" width="29.48" height="29.48" rx="2.74"/>
<path fill="#145591" d="
  M 357.03 1128.38
  C 363.01 1118.95 356.37 1106.42 344.95 1106.30
  Q 338.49 1106.23 332.07 1106.33
  Q 325.84 1106.42 321.41 1104.87
  C 298.48 1096.86 294.70 1066.96 314.79 1053.44
  C 320.85 1049.36 327.29 1048.58 334.63 1048.67
  Q 350.17 1048.86 366.07 1048.71
  A 0.17 0.17 0.0 0 1 366.20 1049.00
  L 352.43 1062.77
  Q 352.02 1063.17 351.45 1063.18
  Q 341.88 1063.20 331.55 1063.15
  Q 322.22 1063.11 318.10 1070.22
  C 313.61 1077.97 317.09 1088.20 325.72 1091.10
  Q 328.63 1092.07 332.58 1091.97
  C 341.41 1091.73 350.55 1091.01 358.76 1095.52
  C 380.97 1107.72 377.50 1140.45 353.46 1148.20
  Q 348.78 1149.71 338.77 1149.57
  Q 323.96 1149.35 309.54 1149.55
  Q 308.93 1149.56 308.93 1148.96
  L 308.94 1135.74
  Q 308.94 1135.10 309.57 1135.11
  Q 327.12 1135.14 344.21 1135.11
  Q 352.78 1135.09 357.03 1128.38
  Z"
/>
<rect fill="#145591" x="1029.96" y="1048.77" width="14.76" height="100.72" rx="0.33"/>
<path fill="#145591" d="
  M 833.08 1097.39
  C 835.14 1098.58 837.09 1100.22 838.70 1102.00
  C 852.79 1117.48 846.29 1141.81 826.40 1148.22
  Q 821.82 1149.69 812.46 1149.59
  Q 792.37 1149.36 775.91 1149.54
  A 0.36 0.36 0.0 0 1 775.55 1149.18
  L 775.58 1050.80
  A 0.33 0.33 0.0 0 1 775.91 1050.47
  Q 790.24 1050.64 804.90 1050.45
  Q 815.17 1050.32 819.86 1051.95
  C 829.11 1055.16 836.10 1062.64 838.38 1072.19
  Q 841.51 1085.34 832.90 1096.49
  Q 832.47 1097.04 833.08 1097.39
  Z
  M 789.66 1065.05
  L 789.76 1092.63
  A 0.36 0.36 0.0 0 0 790.12 1092.99
  L 810.84 1092.92
  A 14.26 14.11 -0.2 0 0 825.05 1078.76
  L 825.05 1078.68
  A 14.26 14.11 -0.2 0 0 810.74 1064.62
  L 790.02 1064.69
  A 0.36 0.36 0.0 0 0 789.66 1065.05
  Z
  M 789.75 1107.27
  L 789.71 1135.11
  A 0.24 0.24 0.0 0 0 789.95 1135.35
  L 817.86 1135.40
  A 14.23 14.05 0.1 0 0 832.11 1121.38
  L 832.11 1121.16
  A 14.23 14.05 0.1 0 0 817.90 1107.08
  L 789.99 1107.03
  A 0.24 0.24 0.0 0 0 789.75 1107.27
  Z"
/>
<path fill="#145591" d="
  M 442.19 1098.54
  Q 442.86 1089.48 436.48 1086.02
  Q 434.09 1084.72 429.11 1084.73
  Q 410.60 1084.76 392.78 1084.73
  Q 391.79 1084.73 392.49 1084.03
  L 405.82 1070.73
  A 1.23 1.20 -67.6 0 1 406.69 1070.36
  Q 421.59 1070.28 435.10 1070.40
  C 447.94 1070.51 456.60 1080.66 456.56 1093.10
  Q 456.48 1121.98 456.54 1148.91
  Q 456.55 1149.48 455.97 1149.49
  Q 421.74 1149.54 408.42 1149.44
  Q 404.19 1149.40 399.55 1147.32
  C 385.29 1140.90 380.02 1122.98 388.96 1110.20
  Q 396.76 1099.05 411.02 1099.10
  Q 426.53 1099.15 441.56 1099.13
  Q 442.15 1099.13 442.19 1098.54
  Z
  M 442.22 1134.72
  L 442.22 1113.88
  A 0.42 0.42 0.0 0 0 441.80 1113.46
  L 409.95 1113.46
  A 10.95 10.72 0.0 0 0 399.00 1124.18
  L 399.00 1124.42
  A 10.95 10.72 -0.0 0 0 409.95 1135.14
  L 441.80 1135.14
  A 0.42 0.42 0.0 0 0 442.22 1134.72
  Z"
/>
<path fill="#145591" d="
  M 528.51 1085.30
  L 528.51 1148.99
  Q 528.51 1149.50 528.01 1149.50
  L 514.70 1149.49
  Q 514.16 1149.49 514.16 1148.95
  L 514.18 1085.33
  A 0.60 0.59 0.0 0 0 513.58 1084.74
  L 485.91 1084.74
  Q 485.30 1084.74 485.30 1085.35
  L 485.30 1148.97
  Q 485.30 1149.50 484.78 1149.50
  L 471.48 1149.49
  A 0.51 0.51 0.0 0 1 470.97 1148.98
  L 470.97 1085.24
  Q 470.97 1084.70 471.35 1084.32
  L 484.88 1070.79
  A 1.72 1.71 22.4 0 1 486.09 1070.29
  Q 515.55 1070.47 546.19 1070.29
  Q 552.82 1070.25 556.28 1071.25
  C 563.03 1073.19 568.92 1078.99 570.81 1085.84
  Q 571.78 1089.38 571.77 1093.77
  Q 571.68 1121.32 571.74 1148.97
  Q 571.74 1149.49 571.21 1149.49
  L 557.95 1149.50
  Q 557.33 1149.50 557.33 1148.88
  Q 557.26 1122.33 557.38 1096.93
  C 557.41 1088.68 552.44 1084.50 544.42 1084.67
  Q 536.30 1084.85 529.14 1084.69
  Q 528.51 1084.67 528.51 1085.30
  Z"
/>
<path fill="#145591" d="
  M 641.94 1098.45
  C 642.08 1093.10 641.22 1088.73 636.25 1086.00
  Q 634.00 1084.77 628.48 1084.76
  Q 610.50 1084.73 592.70 1084.74
  Q 591.59 1084.74 592.36 1083.94
  L 604.96 1070.88
  A 1.81 1.79 21.9 0 1 606.29 1070.32
  Q 617.98 1070.46 630.01 1070.28
  Q 637.46 1070.16 641.37 1071.45
  C 650.78 1074.55 656.39 1082.83 656.36 1092.78
  Q 656.26 1120.12 656.34 1148.92
  Q 656.35 1149.52 655.74 1149.52
  Q 632.74 1149.43 610.95 1149.54
  Q 595.83 1149.62 588.09 1137.42
  C 581.33 1126.77 583.99 1112.76 593.80 1104.72
  C 599.88 1099.74 606.30 1098.94 614.15 1099.04
  Q 627.77 1099.23 641.27 1099.10
  Q 641.92 1099.09 641.94 1098.45
  Z
  M 641.92 1134.76
  L 641.88 1113.80
  A 0.36 0.36 0.0 0 0 641.52 1113.44
  L 609.75 1113.50
  A 11.01 10.82 -0.1 0 0 598.76 1124.34
  L 598.76 1124.38
  A 11.01 10.82 -0.1 0 0 609.79 1135.18
  L 641.56 1135.12
  A 0.36 0.36 0.0 0 0 641.92 1134.76
  Z"
/>
<path fill="#145591" d="
  M 685.13 1085.44
  L 685.13 1148.93
  Q 685.13 1149.49 684.57 1149.49
  L 671.24 1149.50
  Q 670.73 1149.50 670.73 1148.99
  L 670.73 1085.27
  Q 670.73 1084.74 671.10 1084.37
  L 684.85 1070.61
  A 0.90 0.88 21.6 0 1 685.49 1070.34
  Q 703.00 1070.36 720.35 1070.34
  Q 731.20 1070.33 737.79 1078.24
  C 741.89 1083.16 742.77 1088.39 742.76 1095.07
  Q 742.69 1122.56 742.75 1148.73
  Q 742.75 1149.49 741.99 1149.49
  L 729.07 1149.49
  Q 728.24 1149.49 728.25 1148.67
  Q 728.37 1125.71 728.33 1097.46
  Q 728.33 1092.69 727.03 1090.39
  C 724.75 1086.34 721.03 1084.67 716.39 1084.70
  Q 700.96 1084.80 685.85 1084.72
  Q 685.13 1084.71 685.13 1085.44
  Z"
/>
<path fill="#145591" d="
  M 914.72 1098.61
  C 915.60 1089.92 910.88 1084.64 902.55 1084.68
  Q 884.14 1084.78 865.27 1084.72
  Q 864.42 1084.72 865.02 1084.11
  L 878.48 1070.67
  A 1.28 1.26 22.1 0 1 879.38 1070.30
  Q 891.49 1070.46 902.85 1070.28
  Q 909.79 1070.17 913.58 1071.23
  C 923.08 1073.88 929.19 1082.59 929.18 1092.56
  Q 929.17 1121.58 929.18 1149.22
  Q 929.18 1149.53 928.87 1149.53
  Q 909.59 1149.38 888.59 1149.58
  Q 878.31 1149.68 874.26 1148.20
  Q 866.00 1145.18 861.37 1138.13
  C 850.42 1121.51 862.26 1099.43 882.03 1099.19
  Q 897.52 1099.00 914.07 1099.18
  Q 914.66 1099.19 914.72 1098.61
  Z
  M 914.78 1134.77
  L 914.78 1113.83
  A 0.38 0.38 0.0 0 0 914.40 1113.45
  L 882.64 1113.45
  A 11.04 10.85 0.0 0 0 871.60 1124.30
  L 871.60 1124.30
  A 11.04 10.85 -0.0 0 0 882.64 1135.15
  L 914.40 1135.15
  A 0.38 0.38 0.0 0 0 914.78 1134.77
  Z"
/>
<path fill="#145591" d="
  M 957.96 1085.31
  L 957.97 1149.01
  Q 957.97 1149.49 957.49 1149.49
  L 943.92 1149.50
  A 0.36 0.36 0.0 0 1 943.56 1149.14
  L 943.56 1085.27
  Q 943.56 1084.78 943.90 1084.44
  L 957.67 1070.67
  A 1.05 1.02 21.1 0 1 958.38 1070.37
  Q 975.48 1070.31 994.18 1070.38
  C 1003.14 1070.41 1011.41 1076.29 1014.32 1084.87
  Q 1015.63 1088.72 1015.59 1094.27
  Q 1015.41 1121.83 1015.55 1148.93
  A 0.56 0.56 0.0 0 1 1014.99 1149.50
  L 1001.75 1149.50
  Q 1001.18 1149.50 1001.18 1148.93
  Q 1001.18 1125.62 1001.19 1096.61
  C 1001.19 1088.08 995.72 1084.55 987.81 1084.65
  Q 972.81 1084.85 958.57 1084.70
  Q 957.96 1084.69 957.96 1085.31
  Z"
/>
<path fill="#145591" d="
  M 1065.21 1109.48
  L 1104.73 1148.96
  A 0.32 0.32 0.0 0 1 1104.51 1149.51
  L 1085.03 1149.49
  A 0.32 0.32 0.0 0 1 1084.81 1149.40
  L 1044.91 1109.49
  A 0.32 0.32 0.0 0 1 1044.91 1109.03
  L 1083.46 1070.45
  A 0.32 0.32 0.0 0 1 1083.68 1070.36
  L 1103.18 1070.34
  A 0.32 0.32 0.0 0 1 1103.40 1070.89
  L 1065.21 1109.02
  A 0.32 0.32 0.0 0 0 1065.21 1109.48
  Z"
/>
</svg>
